Lexend-wght100-XTRA489-SPACmin.ufo
<glyph name="dollar" format="2">
  <advance width="750"/>
  <unicode hex="0024"/>
  <note>
dollar
</note>
  <outline>
    <contour>
      <point x="365" y="350" type="line"/>
      <point x="387" y="346" type="line"/>
      <point x="387" y="-91" type="line"/>
      <point x="365" y="-91" type="line"/>
    </contour>
    <contour>
      <point x="387" y="350" type="line"/>
      <point x="365" y="354" type="line"/>
      <point x="365" y="782" type="line"/>
      <point x="387" y="782" type="line"/>
    </contour>
    <contour>
      <point x="54" y="115" type="qcurve"/>
      <point x="66" y="136" type="line"/>
      <point x="121" y="74"/>
      <point x="288" y="12"/>
      <point x="390" y="12" type="qcurve"/>
      <point x="518" y="12"/>
      <point x="677" y="103"/>
      <point x="675" y="184" type="qcurve"/>
      <point x="675" y="265"/>
      <point x="497" y="320"/>
      <point x="379" y="336" type="qcurve"/>
      <point x="219" y="357"/>
      <point x="76" y="434"/>
      <point x="76" y="518" type="qcurve"/>
      <point x="76" y="609"/>
      <point x="248" y="710"/>
      <point x="373" y="710" type="qcurve"/>
      <point x="479" y="710"/>
      <point x="620" y="655"/>
      <point x="662" y="611" type="qcurve"/>
      <point x="649" y="592" type="line"/>
      <point x="607" y="633"/>
      <point x="475" y="688"/>
      <point x="373" y="688" type="qcurve"/>
      <point x="260" y="688"/>
      <point x="99" y="598"/>
      <point x="99" y="524" type="qcurve"/>
      <point x="99" y="439"/>
      <point x="258" y="376"/>
      <point x="382" y="360" type="qcurve" smooth="yes"/>
      <point x="502" y="345"/>
      <point x="698" y="283"/>
      <point x="698" y="180" type="qcurve"/>
      <point x="698" y="95"/>
      <point x="537" y="-10"/>
      <point x="390" y="-10" type="qcurve"/>
      <point x="282" y="-10"/>
      <point x="113" y="52"/>
    </contour>
  </outline>
</glyph>
<glyph name="percent" format="2">
  <advance width="1051"/>
  <unicode hex="0025"/>
  <note>
percent
</note>
  <outline>
    <contour>
      <point x="407" y="488" type="qcurve"/>
      <point x="407" y="398"/>
      <point x="304" y="269"/>
      <point x="223" y="269" type="qcurve"/>
      <point x="139" y="269"/>
      <point x="40" y="397"/>
      <point x="40" y="488" type="qcurve"/>
      <point x="40" y="580"/>
      <point x="138" y="709"/>
      <point x="223" y="709" type="qcurve"/>
      <point x="306" y="709"/>
      <point x="407" y="580"/>
    </contour>
    <contour>
      <point x="62" y="488" type="qcurve"/>
      <point x="62" y="402"/>
      <point x="151" y="290"/>
      <point x="223" y="290" type="qcurve"/>
      <point x="296" y="290"/>
      <point x="385" y="405"/>
      <point x="385" y="488" type="qcurve"/>
      <point x="385" y="574"/>
      <point x="297" y="688"/>
      <point x="223" y="688" type="qcurve"/>
      <point x="149" y="688"/>
      <point x="62" y="572"/>
    </contour>
    <contour>
      <point x="1011" y="203" type="qcurve"/>
      <point x="1011" y="113"/>
      <point x="908" y="-16"/>
      <point x="827" y="-16" type="qcurve"/>
      <point x="743" y="-16"/>
      <point x="644" y="112"/>
      <point x="644" y="203" type="qcurve"/>
      <point x="644" y="295"/>
      <point x="742" y="424"/>
      <point x="827" y="424" type="qcurve"/>
      <point x="910" y="424"/>
      <point x="1011" y="295"/>
    </contour>
    <contour>
      <point x="666" y="203" type="qcurve"/>
      <point x="666" y="117"/>
      <point x="755" y="5"/>
      <point x="827" y="5" type="qcurve"/>
      <point x="900" y="5"/>
      <point x="989" y="120"/>
      <point x="989" y="203" type="qcurve"/>
      <point x="989" y="289"/>
      <point x="901" y="403"/>
      <point x="827" y="403" type="qcurve"/>
      <point x="753" y="403"/>
      <point x="666" y="287"/>
    </contour>
    <contour>
      <point x="290" y="0" type="line"/>
      <point x="264" y="0" type="line"/>
      <point x="524" y="381" type="line"/>
      <point x="748" y="700" type="line"/>
      <point x="776" y="700" type="line"/>
      <point x="510" y="322" type="line"/>
    </contour>
  </outline>
</glyph>
<glyph name="two" format="2">
  <advance width="638"/>
  <unicode hex="0032"/>
  <outline>
    <contour>
      <point x="85" y="22" type="line"/>
      <point x="596" y="22" type="line"/>
      <point x="596" y="0" type="line"/>
      <point x="78" y="0" type="line"/>
      <point x="68" y="22" type="line"/>
      <point x="372" y="290" type="line" smooth="yes"/>
      <point x="406" y="320"/>
      <point x="561" y="468"/>
      <point x="561" y="537" type="qcurve"/>
      <point x="561" y="609"/>
      <point x="454" y="688"/>
      <point x="347" y="688" type="qcurve"/>
      <point x="272" y="688"/>
      <point x="137" y="619"/>
      <point x="71" y="524" type="qcurve"/>
      <point x="56" y="537" type="line"/>
      <point x="105" y="619"/>
      <point x="252" y="710"/>
      <point x="349" y="710" type="qcurve" smooth="yes"/>
      <point x="460" y="710"/>
      <point x="584" y="622"/>
      <point x="584" y="543" type="qcurve" smooth="yes"/>
      <point x="584" y="457"/>
      <point x="418" y="302"/>
      <point x="388" y="275" type="qcurve" smooth="yes"/>
      <point x="87" y="10" type="line"/>
    </contour>
  </outline>
</glyph>
<glyph name="four" format="2">
  <advance width="720"/>
  <unicode hex="0034"/>
  <outline>
    <contour>
      <point x="516" y="0" type="line"/>
      <point x="494" y="0" type="line"/>
      <point x="494" y="690" type="line"/>
      <point x="504" y="688" type="line"/>
      <point x="56" y="203" type="line"/>
      <point x="51" y="212" type="line"/>
      <point x="678" y="212" type="line"/>
      <point x="678" y="190" type="line"/>
      <point x="46" y="190" type="line"/>
      <point x="35" y="212" type="line"/>
      <point x="486" y="700" type="line"/>
      <point x="516" y="700" type="line"/>
    </contour>
  </outline>
</glyph>
<glyph name="five" format="2">
  <advance width="648"/>
  <unicode hex="0035"/>
  <outline>
    <contour>
      <point x="588" y="237" type="qcurve" smooth="yes"/>
      <point x="588" y="132"/>
      <point x="427" y="-10"/>
      <point x="297" y="-10" type="qcurve"/>
      <point x="209" y="-10"/>
      <point x="81" y="56"/>
      <point x="39" y="102" type="qcurve"/>
      <point x="54" y="120" type="line"/>
      <point x="95" y="74"/>
      <point x="216" y="12"/>
      <point x="298" y="12" type="qcurve"/>
      <point x="416" y="12"/>
      <point x="565" y="143"/>
      <point x="565" y="244" type="qcurve"/>
      <point x="565" y="329"/>
      <point x="420" y="442"/>
      <point x="321" y="442" type="qcurve"/>
      <point x="225" y="442"/>
      <point x="100" y="387"/>
      <point x="78" y="366" type="qcurve"/>
      <point x="65" y="377" type="line"/>
      <point x="111" y="700" type="line"/>
      <point x="527" y="700" type="line"/>
      <point x="527" y="678" type="line"/>
      <point x="116" y="678" type="line"/>
      <point x="132" y="690" type="line"/>
      <point x="88" y="390" type="line"/>
      <point x="83" y="394" type="line"/>
      <point x="126" y="427"/>
      <point x="251" y="464"/>
      <point x="322" y="464" type="qcurve"/>
      <point x="429" y="464"/>
      <point x="588" y="341"/>
    </contour>
  </outline>
</glyph>
<glyph name="six" format="2">
  <advance width="695"/>
  <unicode hex="0036"/>
  <outline>
    <contour>
      <point x="613" y="222" type="qcurve" smooth="yes"/>
      <point x="613" y="131"/>
      <point x="459" y="-10"/>
      <point x="335" y="-10" type="qcurve"/>
      <point x="229" y="-10"/>
      <point x="68" y="123"/>
      <point x="68" y="233" type="qcurve" smooth="yes"/>
      <point x="68" y="321"/>
      <point x="149" y="457"/>
      <point x="202" y="514" type="qcurve" smooth="yes"/>
      <point x="373" y="700" type="line"/>
      <point x="397" y="700" type="line"/>
      <point x="399" y="695" type="line"/>
      <point x="220" y="501" type="line" smooth="yes"/>
      <point x="169" y="446"/>
      <point x="90" y="322"/>
      <point x="92" y="284" type="qcurve"/>
      <point x="83" y="283" type="line"/>
      <point x="92" y="346"/>
      <point x="238" y="455"/>
      <point x="345" y="455" type="qcurve" smooth="yes"/>
      <point x="458" y="455"/>
      <point x="613" y="327"/>
    </contour>
    <contour>
      <point x="91" y="225" type="qcurve"/>
      <point x="91" y="140"/>
      <point x="228" y="12"/>
      <point x="338" y="12" type="qcurve"/>
      <point x="438" y="12"/>
      <point x="590" y="130"/>
      <point x="590" y="223" type="qcurve" smooth="yes"/>
      <point x="590" y="316"/>
      <point x="455" y="433"/>
      <point x="338" y="433" type="qcurve" smooth="yes"/>
      <point x="229" y="433"/>
      <point x="91" y="307"/>
    </contour>
  </outline>
</glyph>
<glyph name="seven" format="2">
  <advance width="538"/>
  <unicode hex="0037"/>
  <outline>
    <contour>
      <point x="193" y="0" type="line"/>
      <point x="168" y="0" type="line"/>
      <point x="476" y="693" type="line"/>
      <point x="484" y="678" type="line"/>
      <point x="0" y="678" type="line"/>
      <point x="0" y="700" type="line"/>
      <point x="484" y="700" type="line"/>
      <point x="496" y="684" type="line"/>
    </contour>
  </outline>
</glyph>
<glyph name="eight" format="2">
  <advance width="681"/>
  <unicode hex="0038"/>
  <outline>
    <contour>
      <point x="581" y="539" type="qcurve"/>
      <point x="581" y="464"/>
      <point x="464" y="380"/>
      <point x="398" y="374" type="qcurve"/>
      <point x="397" y="386" type="line"/>
      <point x="492" y="371"/>
      <point x="627" y="275"/>
      <point x="627" y="194" type="qcurve" smooth="yes"/>
      <point x="627" y="111"/>
      <point x="468" y="-3"/>
      <point x="341" y="-3" type="qcurve"/>
      <point x="215" y="-3"/>
      <point x="55" y="110"/>
      <point x="55" y="193" type="qcurve" smooth="yes"/>
      <point x="55" y="276"/>
      <point x="195" y="370"/>
      <point x="295" y="385" type="qcurve"/>
      <point x="294" y="373" type="line"/>
      <point x="213" y="380"/>
      <point x="103" y="471"/>
      <point x="103" y="541" type="qcurve"/>
      <point x="103" y="612"/>
      <point x="234" y="710"/>
      <point x="341" y="710" type="qcurve"/>
      <point x="447" y="710"/>
      <point x="581" y="616"/>
    </contour>
    <contour>
      <point x="341" y="688" type="qcurve"/>
      <point x="252" y="688"/>
      <point x="125" y="607"/>
      <point x="125" y="541" type="qcurve"/>
      <point x="125" y="467"/>
      <point x="258" y="387"/>
      <point x="341" y="387" type="qcurve" smooth="yes"/>
      <point x="443" y="387"/>
      <point x="559" y="475"/>
      <point x="559" y="540" type="qcurve"/>
      <point x="559" y="607"/>
      <point x="436" y="688"/>
    </contour>
    <contour>
      <point x="77" y="193" type="qcurve"/>
      <point x="77" y="121"/>
      <point x="233" y="19"/>
      <point x="341" y="19" type="qcurve"/>
      <point x="450" y="19"/>
      <point x="605" y="121"/>
      <point x="605" y="194" type="qcurve"/>
      <point x="605" y="268"/>
      <point x="452" y="365"/>
      <point x="341" y="365" type="qcurve" smooth="yes"/>
      <point x="231" y="365"/>
      <point x="77" y="268"/>
    </contour>
  </outline>
</glyph>
<glyph name="at" format="2">
  <advance width="1206"/>
  <unicode hex="0040"/>
  <note>
at
</note>
  <outline>
    <contour>
      <point x="1151" y="364" type="qcurve"/>
      <point x="1151" y="211"/>
      <point x="965" y="56"/>
      <point x="866" y="56" type="qcurve"/>
      <point x="780" y="56"/>
      <point x="758" y="169"/>
      <point x="776" y="201" type="qcurve"/>
      <point x="793" y="244" type="line"/>
      <point x="803" y="233" type="line"/>
      <point x="772" y="160"/>
      <point x="622" y="56"/>
      <point x="512" y="56" type="qcurve"/>
      <point x="424" y="56"/>
      <point x="304" y="156"/>
      <point x="304" y="249" type="qcurve"/>
      <point x="304" y="306"/>
      <point x="362" y="415"/>
      <point x="414" y="450" type="qcurve" smooth="yes"/>
      <point x="450" y="475"/>
      <point x="541" y="503"/>
      <point x="598" y="503" type="qcurve"/>
      <point x="687" y="503"/>
      <point x="807" y="415"/>
      <point x="824" y="346" type="qcurve"/>
      <point x="816" y="345" type="line"/>
      <point x="844" y="482" type="line"/>
      <point x="865" y="482" type="line"/>
      <point x="815" y="272" type="line"/>
      <point x="796" y="201" type="line"/>
      <point x="781" y="147"/>
      <point x="807" y="78"/>
      <point x="867" y="78" type="qcurve"/>
      <point x="959" y="78"/>
      <point x="1128" y="224"/>
      <point x="1128" y="362" type="qcurve"/>
      <point x="1128" y="512"/>
      <point x="876" y="708"/>
      <point x="646" y="708" type="qcurve"/>
      <point x="391" y="708"/>
      <point x="78" y="411"/>
      <point x="78" y="221" type="qcurve"/>
      <point x="78" y="57"/>
      <point x="308" y="-160"/>
      <point x="476" y="-160" type="qcurve"/>
      <point x="565" y="-160"/>
      <point x="694" y="-124"/>
      <point x="719" y="-113" type="qcurve" smooth="yes"/>
      <point x="736" y="-106"/>
      <point x="752" y="-98"/>
      <point x="769" y="-91" type="qcurve"/>
      <point x="777" y="-111" type="line"/>
      <point x="744" y="-129"/>
      <point x="577" y="-182"/>
      <point x="476" y="-182" type="qcurve"/>
      <point x="300" y="-182"/>
      <point x="55" y="45"/>
      <point x="55" y="220" type="qcurve"/>
      <point x="55" y="321"/>
      <point x="127" y="483"/>
      <point x="188" y="547" type="qcurve" smooth="yes"/>
      <point x="266" y="630"/>
      <point x="495" y="730"/>
      <point x="645" y="730" type="qcurve"/>
      <point x="896" y="730"/>
      <point x="1151" y="515"/>
    </contour>
    <contour>
      <point x="327" y="250" type="qcurve"/>
      <point x="327" y="175"/>
      <point x="425" y="78"/>
      <point x="508" y="78" type="qcurve"/>
      <point x="617" y="78"/>
      <point x="764" y="175"/>
      <point x="797" y="274" type="qcurve" smooth="yes"/>
      <point x="799" y="280"/>
      <point x="803" y="297"/>
      <point x="805" y="308" type="qcurve" smooth="yes"/>
      <point x="815" y="362"/>
      <point x="697" y="481"/>
      <point x="602" y="481" type="qcurve"/>
      <point x="481" y="481"/>
      <point x="328" y="341"/>
    </contour>
  </outline>
</glyph>
<glyph name="B" format="2">
  <advance width="799"/>
  <unicode hex="0042"/>
  <note>
B
</note>
  <anchor x="398" y="0" name="bottom"/>
  <anchor x="398" y="700" name="top"/>
  <outline>
    <contour>
      <point x="110" y="700" type="line"/>
      <point x="485" y="700" type="line"/>
      <point x="594" y="699"/>
      <point x="711" y="613"/>
      <point x="711" y="533" type="qcurve"/>
      <point x="711" y="451"/>
      <point x="587" y="362"/>
      <point x="472" y="362" type="qcurve"/>
      <point x="471" y="378" type="line"/>
      <point x="604" y="385"/>
      <point x="748" y="288"/>
      <point x="748" y="190" type="qcurve"/>
      <point x="748" y="98"/>
      <point x="619" y="0"/>
      <point x="500" y="0" type="qcurve"/>
      <point x="110" y="0" type="line"/>
    </contour>
    <contour>
      <point x="688" y="534" type="qcurve"/>
      <point x="688" y="603"/>
      <point x="586" y="678"/>
      <point x="492" y="678" type="qcurve"/>
      <point x="125" y="678" type="line"/>
      <point x="132" y="701" type="line"/>
      <point x="132" y="368" type="line"/>
      <point x="126" y="384" type="line"/>
      <point x="501" y="384" type="line"/>
      <point x="591" y="384"/>
      <point x="688" y="462"/>
    </contour>
    <contour>
      <point x="725" y="190" type="qcurve"/>
      <point x="725" y="273"/>
      <point x="605" y="362"/>
      <point x="494" y="362" type="qcurve"/>
      <point x="126" y="362" type="line"/>
      <point x="132" y="376" type="line"/>
      <point x="132" y="9" type="line"/>
      <point x="123" y="22" type="line"/>
      <point x="489" y="22" type="line"/>
      <point x="602" y="18"/>
      <point x="724" y="105"/>
    </contour>
  </outline>
</glyph>
<glyph name="C" format="2">
  <advance width="821"/>
  <unicode hex="0043"/>
  <note>
C
</note>
  <outline>
    <contour>
      <point x="769" y="116" type="qcurve"/>
      <point x="780" y="97" type="line"/>
      <point x="725" y="48"/>
      <point x="571" y="-10"/>
      <point x="479" y="-10" type="qcurve"/>
      <point x="291" y="-10"/>
      <point x="55" y="195"/>
      <point x="55" y="349" type="qcurve"/>
      <point x="55" y="503"/>
      <point x="291" y="710"/>
      <point x="479" y="710" type="qcurve"/>
      <point x="574" y="710"/>
      <point x="731" y="648"/>
      <point x="786" y="596" type="qcurve"/>
      <point x="778" y="574" type="line"/>
      <point x="726" y="626"/>
      <point x="572" y="688"/>
      <point x="479" y="688" type="qcurve"/>
      <point x="303" y="688"/>
      <point x="78" y="494"/>
      <point x="78" y="349" type="qcurve"/>
      <point x="78" y="204"/>
      <point x="303" y="12"/>
      <point x="479" y="12" type="qcurve"/>
      <point x="568" y="12"/>
      <point x="715" y="68"/>
    </contour>
  </outline>
</glyph>
<glyph name="E" format="2">
  <advance width="706"/>
  <unicode hex="0045"/>
  <note>
E
</note>
  <outline>
    <contour>
      <point x="132" y="0" type="line"/>
      <point x="110" y="0" type="line"/>
      <point x="110" y="700" type="line"/>
      <point x="132" y="700" type="line"/>
    </contour>
    <contour>
      <point x="635" y="0" type="line"/>
      <point x="123" y="0" type="line"/>
      <point x="123" y="22" type="line"/>
      <point x="635" y="22" type="line"/>
    </contour>
    <contour>
      <point x="583" y="351" type="line"/>
      <point x="122" y="351" type="line"/>
      <point x="122" y="373" type="line"/>
      <point x="583" y="373" type="line"/>
    </contour>
    <contour>
      <point x="641" y="678" type="line"/>
      <point x="124" y="678" type="line"/>
      <point x="124" y="700" type="line"/>
      <point x="641" y="700" type="line"/>
    </contour>
  </outline>
</glyph>
<glyph name="H" format="2">
  <advance width="872"/>
  <unicode hex="0048"/>
  <note>
H
</note>
  <outline>
    <contour>
      <point x="110" y="700" type="line"/>
      <point x="132" y="700" type="line"/>
      <point x="132" y="0" type="line"/>
      <point x="110" y="0" type="line"/>
    </contour>
    <contour>
      <point x="739" y="700" type="line"/>
      <point x="761" y="700" type="line"/>
      <point x="761" y="0" type="line"/>
      <point x="739" y="0" type="line"/>
    </contour>
    <contour>
      <point x="121" y="334" type="line"/>
      <point x="122" y="356" type="line"/>
      <point x="750" y="356" type="line"/>
      <point x="750" y="334" type="line"/>
    </contour>
  </outline>
</glyph>
<glyph name="J" format="2">
  <advance width="713"/>
  <unicode hex="004A"/>
  <note>
J
</note>
  <outline>
    <contour>
      <point x="269" y="-10" type="qcurve"/>
      <point x="181" y="-10"/>
      <point x="46" y="88"/>
      <point x="20" y="150" type="qcurve"/>
      <point x="39" y="167" type="line"/>
      <point x="67" y="102"/>
      <point x="192" y="13"/>
      <point x="271" y="13" type="qcurve"/>
      <point x="378" y="13"/>
      <point x="511" y="146"/>
      <point x="511" y="273" type="qcurve"/>
      <point x="511" y="700" type="line"/>
      <point x="533" y="700" type="line"/>
      <point x="533" y="273" type="line"/>
      <point x="533" y="139"/>
      <point x="395" y="-10"/>
    </contour>
    <contour>
      <point x="663" y="700" type="line"/>
      <point x="663" y="678" type="line"/>
      <point x="336" y="678" type="line"/>
      <point x="336" y="700" type="line"/>
    </contour>
  </outline>
</glyph>
<glyph name="L" format="2">
  <advance width="633"/>
  <unicode hex="004C"/>
  <note>
L
</note>
  <anchor x="365" y="0" name="bottom"/>
  <anchor x="456" y="350" name="center"/>
  <anchor x="172" y="700" name="top"/>
  <anchor x="632" y="700" name="topright"/>
  <outline>
    <contour>
      <point x="120" y="22" type="line"/>
      <point x="623" y="22" type="line"/>
      <point x="623" y="0" type="line"/>
      <point x="110" y="0" type="line"/>
      <point x="110" y="700" type="line"/>
      <point x="132" y="700" type="line"/>
      <point x="132" y="9" type="line"/>
    </contour>
  </outline>
</glyph>
<glyph name="M" format="2">
  <advance width="972"/>
  <unicode hex="004D"/>
  <note>
M
</note>
  <anchor x="492" y="0" name="bottom"/>
  <anchor x="492" y="700" name="top"/>
  <outline>
    <contour>
      <point x="110" y="700" type="line"/>
      <point x="130" y="700" type="line"/>
      <point x="497" y="235" type="line"/>
      <point x="485" y="235" type="line"/>
      <point x="852" y="700" type="line"/>
      <point x="872" y="700" type="line"/>
      <point x="872" y="0" type="line"/>
      <point x="850" y="0" type="line"/>
      <point x="850" y="393" type="line" smooth="yes"/>
      <point x="850" y="472"/>
      <point x="849" y="611"/>
      <point x="853" y="683" type="qcurve"/>
      <point x="866" y="683" type="line"/>
      <point x="498" y="217" type="line"/>
      <point x="483" y="217" type="line"/>
      <point x="114" y="685" type="line"/>
      <point x="129" y="682" type="line"/>
      <point x="133" y="619"/>
      <point x="132" y="468"/>
      <point x="132" y="393" type="qcurve"/>
      <point x="132" y="0" type="line"/>
      <point x="110" y="0" type="line"/>
    </contour>
  </outline>
</glyph>
<glyph name="N" format="2">
  <advance width="890"/>
  <unicode hex="004E"/>
  <note>
N
</note>
  <outline>
    <contour>
      <point x="758" y="241" type="qcurve"/>
      <point x="758" y="700" type="line"/>
      <point x="780" y="700" type="line"/>
      <point x="780" y="0" type="line"/>
      <point x="750" y="0" type="line"/>
      <point x="125" y="685" type="line"/>
      <point x="130" y="685" type="line"/>
      <point x="131" y="656"/>
      <point x="133" y="549"/>
      <point x="132" y="470" type="qcurve"/>
      <point x="132" y="0" type="line"/>
      <point x="110" y="0" type="line"/>
      <point x="110" y="700" type="line"/>
      <point x="140" y="700" type="line"/>
      <point x="765" y="18" type="line"/>
      <point x="760" y="17" type="line"/>
      <point x="758" y="78"/>
      <point x="759" y="203"/>
    </contour>
  </outline>
</glyph>
<glyph name="Q" format="2">
  <advance width="958"/>
  <unicode hex="0051"/>
  <note>
Q
</note>
  <outline>
    <contour>
      <point x="479" y="710" type="qcurve"/>
      <point x="666" y="710"/>
      <point x="903" y="505"/>
      <point x="903" y="349" type="qcurve"/>
      <point x="903" y="194"/>
      <point x="666" y="-10"/>
      <point x="479" y="-10" type="qcurve"/>
      <point x="291" y="-10"/>
      <point x="55" y="195"/>
      <point x="55" y="349" type="qcurve"/>
      <point x="55" y="503"/>
      <point x="291" y="710"/>
    </contour>
    <contour>
      <point x="479" y="12" type="qcurve" smooth="yes"/>
      <point x="655" y="12"/>
      <point x="880" y="204"/>
      <point x="880" y="349" type="qcurve"/>
      <point x="880" y="494"/>
      <point x="655" y="688"/>
      <point x="479" y="688" type="qcurve" smooth="yes"/>
      <point x="303" y="688"/>
      <point x="78" y="494"/>
      <point x="78" y="349" type="qcurve"/>
      <point x="78" y="204"/>
      <point x="303" y="12"/>
    </contour>
    <contour>
      <point x="527" y="265" type="line"/>
      <point x="780" y="-74" type="line"/>
      <point x="755" y="-78" type="line"/>
      <point x="501" y="260" type="line"/>
    </contour>
  </outline>
</glyph>
<glyph name="R" format="2">
  <advance width="739"/>
  <unicode hex="0052"/>
  <note>
R
</note>
  <outline>
    <contour>
      <point x="662" y="514" type="qcurve"/>
      <point x="662" y="409"/>
      <point x="544" y="286"/>
      <point x="444" y="286" type="qcurve"/>
      <point x="123" y="286" type="line"/>
      <point x="123" y="308" type="line"/>
      <point x="438" y="308" type="line"/>
      <point x="532" y="308"/>
      <point x="639" y="420"/>
      <point x="639" y="513" type="qcurve"/>
      <point x="639" y="583"/>
      <point x="543" y="678"/>
      <point x="466" y="678" type="qcurve"/>
      <point x="120" y="678" type="line"/>
      <point x="132" y="681" type="line"/>
      <point x="132" y="0" type="line"/>
      <point x="110" y="0" type="line"/>
      <point x="110" y="700" type="line"/>
      <point x="472" y="700" type="line"/>
      <point x="555" y="700"/>
      <point x="662" y="595"/>
    </contour>
    <contour>
      <point x="434" y="298" type="line"/>
      <point x="461" y="301" type="line"/>
      <point x="699" y="0" type="line"/>
      <point x="670" y="0" type="line"/>
    </contour>
  </outline>
</glyph>
<glyph name="S" format="2">
  <advance width="727"/>
  <unicode hex="0053"/>
  <note>
S
</note>
  <anchor x="362" y="0" name="bottom"/>
  <anchor x="362" y="700" name="top"/>
  <outline>
    <contour>
      <point x="43" y="115" type="qcurve"/>
      <point x="55" y="136" type="line"/>
      <point x="110" y="74"/>
      <point x="277" y="12"/>
      <point x="379" y="12" type="qcurve"/>
      <point x="507" y="12"/>
      <point x="666" y="103"/>
      <point x="664" y="184" type="qcurve"/>
      <point x="664" y="248"/>
      <point x="538" y="314"/>
      <point x="370" y="337" type="qcurve" smooth="yes"/>
      <point x="195" y="360"/>
      <point x="65" y="437"/>
      <point x="65" y="518" type="qcurve"/>
      <point x="65" y="609"/>
      <point x="237" y="710"/>
      <point x="362" y="710" type="qcurve"/>
      <point x="468" y="710"/>
      <point x="609" y="655"/>
      <point x="651" y="611" type="qcurve"/>
      <point x="638" y="593" type="line"/>
      <point x="596" y="634"/>
      <point x="464" y="688"/>
      <point x="362" y="688" type="qcurve"/>
      <point x="249" y="688"/>
      <point x="88" y="598"/>
      <point x="88" y="524" type="qcurve"/>
      <point x="88" y="451"/>
      <point x="209" y="381"/>
      <point x="371" y="360" type="qcurve" smooth="yes"/>
      <point x="552" y="337"/>
      <point x="687" y="260"/>
      <point x="687" y="180" type="qcurve"/>
      <point x="687" y="95"/>
      <point x="526" y="-10"/>
      <point x="379" y="-10" type="qcurve"/>
      <point x="271" y="-10"/>
      <point x="102" y="52"/>
    </contour>
  </outline>
</glyph>
<glyph name="T" format="2">
  <advance width="628"/>
  <unicode hex="0054"/>
  <note>
T
</note>
  <outline>
    <contour>
      <point x="325" y="0" type="line"/>
      <point x="303" y="0" type="line"/>
      <point x="303" y="688" type="line"/>
      <point x="325" y="688" type="line"/>
    </contour>
    <contour>
      <point x="608" y="678" type="line"/>
      <point x="20" y="678" type="line"/>
      <point x="20" y="700" type="line"/>
      <point x="608" y="700" type="line"/>
    </contour>
  </outline>
</glyph>
<glyph name="U" format="2">
  <advance width="884"/>
  <unicode hex="0055"/>
  <note>
U
</note>
  <anchor x="437" y="0" name="bottom"/>
  <anchor x="527" y="0" name="ogonek"/>
  <anchor x="437" y="700" name="top"/>
  <anchor x="897" y="700" name="topright"/>
  <outline>
    <contour>
      <point x="752" y="700" type="line"/>
      <point x="774" y="700" type="line"/>
      <point x="774" y="335" type="line"/>
      <point x="774" y="187"/>
      <point x="591" y="-6"/>
      <point x="438" y="-6" type="qcurve"/>
      <point x="288" y="-6"/>
      <point x="111" y="187"/>
      <point x="110" y="337" type="qcurve"/>
      <point x="110" y="700" type="line"/>
      <point x="132" y="700" type="line"/>
      <point x="132" y="339" type="line"/>
      <point x="132" y="196"/>
      <point x="302" y="17"/>
      <point x="438" y="17" type="qcurve"/>
      <point x="578" y="17"/>
      <point x="752" y="196"/>
      <point x="752" y="339" type="qcurve"/>
    </contour>
  </outline>
</glyph>
<glyph name="V" format="2">
  <advance width="760"/>
  <unicode hex="0056"/>
  <note>
V
</note>
  <outline>
    <contour>
      <point x="364" y="0" type="line"/>
      <point x="20" y="700" type="line"/>
      <point x="44" y="701" type="line"/>
      <point x="320" y="138" type="line"/>
      <point x="352" y="75"/>
      <point x="369" y="39"/>
      <point x="380" y="17" type="qcurve"/>
      <point x="379" y="17" type="line"/>
      <point x="390" y="39"/>
      <point x="409" y="76"/>
      <point x="439" y="137" type="qcurve"/>
      <point x="716" y="701" type="line"/>
      <point x="740" y="700" type="line"/>
      <point x="395" y="0" type="line"/>
    </contour>
  </outline>
</glyph>
<glyph name="X" format="2">
  <advance width="725"/>
  <unicode hex="0058"/>
  <note>
X
</note>
  <anchor x="358" y="0" name="bottom"/>
  <anchor x="358" y="700" name="top"/>
  <outline>
    <contour>
      <point x="660" y="700" type="line"/>
      <point x="690" y="700" type="line"/>
      <point x="365" y="352" type="line"/>
      <point x="349" y="368" type="line"/>
    </contour>
    <contour>
      <point x="30" y="700" type="line"/>
      <point x="59" y="700" type="line"/>
      <point x="364" y="370" type="line"/>
      <point x="703" y="0" type="line"/>
      <point x="673" y="0" type="line"/>
      <point x="351" y="351" type="line"/>
    </contour>
    <contour>
      <point x="51" y="0" type="line"/>
      <point x="22" y="0" type="line"/>
      <point x="348" y="366" type="line"/>
      <point x="364" y="350" type="line"/>
    </contour>
  </outline>
</glyph>
<glyph name="Z" format="2">
  <advance width="774"/>
  <unicode hex="005A"/>
  <note>
Z
</note>
  <outline>
    <contour>
      <point x="86" y="700" type="line"/>
      <point x="703" y="700" type="line"/>
      <point x="703" y="677" type="line"/>
      <point x="77" y="10" type="line"/>
      <point x="81" y="22" type="line"/>
      <point x="714" y="22" type="line"/>
      <point x="714" y="0" type="line"/>
      <point x="60" y="0" type="line"/>
      <point x="60" y="24" type="line"/>
      <point x="687" y="692" type="line"/>
      <point x="683" y="678" type="line"/>
      <point x="86" y="678" type="line"/>
    </contour>
  </outline>
</glyph>
<glyph name="c" format="2">
  <advance width="676"/>
  <unicode hex="0063"/>
  <note>
c
</note>
  <outline>
    <contour>
      <point x="366" y="514" type="qcurve" smooth="yes"/>
      <point x="233" y="514"/>
      <point x="62" y="370"/>
      <point x="62" y="263" type="qcurve" smooth="yes"/>
      <point x="62" y="149"/>
      <point x="243" y="12"/>
      <point x="366" y="12" type="qcurve"/>
      <point x="473" y="12"/>
      <point x="601" y="57"/>
      <point x="643" y="80" type="qcurve"/>
      <point x="654" y="60" type="line"/>
      <point x="601" y="31"/>
      <point x="468" y="-10"/>
      <point x="376" y="-10" type="qcurve"/>
      <point x="227" y="-10"/>
      <point x="40" y="144"/>
      <point x="40" y="263" type="qcurve" smooth="yes"/>
      <point x="40" y="380"/>
      <point x="230" y="536"/>
      <point x="376" y="536" type="qcurve"/>
      <point x="453" y="536"/>
      <point x="598" y="487"/>
      <point x="656" y="447" type="qcurve"/>
      <point x="644" y="429" type="line"/>
      <point x="604" y="458"/>
      <point x="465" y="514"/>
    </contour>
  </outline>
</glyph>
<glyph name="e" format="2">
  <advance width="705"/>
  <unicode hex="0065"/>
  <note>
e
</note>
  <outline>
    <contour>
      <point x="637" y="86" type="qcurve"/>
      <point x="642" y="63" type="line"/>
      <point x="584" y="27"/>
      <point x="474" y="-10"/>
      <point x="388" y="-10" type="qcurve"/>
      <point x="228" y="-10"/>
      <point x="40" y="145"/>
      <point x="40" y="263" type="qcurve"/>
      <point x="40" y="387"/>
      <point x="234" y="536"/>
      <point x="365" y="536" type="qcurve"/>
      <point x="493" y="536"/>
      <point x="670" y="404"/>
      <point x="670" y="291" type="qcurve"/>
      <point x="669" y="255" type="line"/>
      <point x="52" y="255" type="line"/>
      <point x="52" y="277" type="line"/>
      <point x="658" y="277" type="line"/>
      <point x="648" y="270" type="line"/>
      <point x="648" y="295" type="line"/>
      <point x="648" y="394"/>
      <point x="483" y="514"/>
      <point x="368" y="514" type="qcurve"/>
      <point x="244" y="514"/>
      <point x="63" y="381"/>
      <point x="62" y="263" type="qcurve"/>
      <point x="63" y="154"/>
      <point x="245" y="14"/>
      <point x="387" y="14" type="qcurve"/>
      <point x="477" y="14"/>
      <point x="594" y="58"/>
    </contour>
  </outline>
</glyph>
<glyph name="h" format="2">
  <advance width="658"/>
  <unicode hex="0068"/>
  <note>
h
</note>
  <outline>
    <contour>
      <point x="340" y="536" type="qcurve"/>
      <point x="462" y="536"/>
      <point x="595" y="408"/>
      <point x="595" y="318" type="qcurve"/>
      <point x="595" y="0" type="line"/>
      <point x="573" y="0" type="line"/>
      <point x="573" y="311" type="line"/>
      <point x="573" y="403"/>
      <point x="444" y="514"/>
      <point x="345" y="514" type="qcurve"/>
      <point x="236" y="514"/>
      <point x="95" y="381"/>
      <point x="94" y="343" type="qcurve"/>
      <point x="94" y="0" type="line"/>
      <point x="112" y="0"/>
      <point x="53" y="0"/>
      <point x="72" y="0" type="qcurve"/>
      <point x="72" y="740" type="line"/>
      <point x="94" y="740" type="line"/>
      <point x="94" y="364" type="line"/>
      <point x="80" y="360" type="line"/>
      <point x="97" y="420"/>
      <point x="240" y="536"/>
    </contour>
  </outline>
</glyph>
<glyph name="l" format="2">
  <advance width="166"/>
  <unicode hex="006C"/>
  <note>
l
</note>
  <outline>
    <contour>
      <point x="94" y="0" type="line"/>
      <point x="72" y="0" type="line"/>
      <point x="72" y="740" type="line"/>
      <point x="94" y="740" type="line"/>
    </contour>
  </outline>
</glyph>
<glyph name="m" format="2">
  <advance width="1118"/>
  <unicode hex="006D"/>
  <note>
m
</note>
  <guideline x="1186" y="-44" angle="270" identifier="qkWt8rVOxr"/>
  <outline>
    <contour>
      <point x="327" y="536" type="qcurve"/>
      <point x="420" y="536"/>
      <point x="540" y="454"/>
      <point x="570" y="368" type="qcurve"/>
      <point x="564" y="368" type="line"/>
      <point x="557" y="374" type="line"/>
      <point x="588" y="444"/>
      <point x="720" y="536"/>
      <point x="808" y="536" type="qcurve"/>
      <point x="926" y="536"/>
      <point x="1055" y="408"/>
      <point x="1055" y="318" type="qcurve"/>
      <point x="1055" y="0" type="line"/>
      <point x="1033" y="0" type="line"/>
      <point x="1033" y="311" type="line"/>
      <point x="1033" y="403"/>
      <point x="909" y="514"/>
      <point x="813" y="514" type="qcurve"/>
      <point x="716" y="514"/>
      <point x="574" y="390"/>
      <point x="574" y="338" type="qcurve"/>
      <point x="574" y="0" type="line"/>
      <point x="552" y="0" type="line"/>
      <point x="552" y="311" type="line"/>
      <point x="552" y="403"/>
      <point x="428" y="514"/>
      <point x="332" y="514" type="qcurve"/>
      <point x="226" y="514"/>
      <point x="88" y="381"/>
      <point x="87" y="343" type="qcurve"/>
      <point x="87" y="0" type="line"/>
      <point x="65" y="0" type="line"/>
      <point x="65" y="525" type="line"/>
      <point x="85" y="525" type="line"/>
      <point x="87" y="363" type="line"/>
      <point x="72" y="368" type="line"/>
      <point x="113" y="447"/>
      <point x="242" y="536"/>
    </contour>
  </outline>
</glyph>
<glyph name="n" format="2">
  <advance width="661"/>
  <unicode hex="006E"/>
  <note>
n
</note>
  <outline>
    <contour>
      <point x="338" y="536" type="qcurve"/>
      <point x="460" y="536"/>
      <point x="593" y="408"/>
      <point x="593" y="318" type="qcurve"/>
      <point x="593" y="0" type="line"/>
      <point x="571" y="0" type="line"/>
      <point x="571" y="311" type="line"/>
      <point x="571" y="403"/>
      <point x="442" y="514"/>
      <point x="343" y="514" type="qcurve"/>
      <point x="234" y="514"/>
      <point x="93" y="381"/>
      <point x="92" y="343" type="qcurve"/>
      <point x="92" y="0" type="line"/>
      <point x="85" y="0"/>
      <point x="78" y="0"/>
      <point x="70" y="0" type="qcurve"/>
      <point x="70" y="525" type="line"/>
      <point x="90" y="525" type="line"/>
      <point x="92" y="364" type="line"/>
      <point x="78" y="360" type="line"/>
      <point x="95" y="420"/>
      <point x="238" y="536"/>
    </contour>
  </outline>
</glyph>
<glyph name="o" format="2">
  <advance width="775"/>
  <unicode hex="006F"/>
  <note>
o
</note>
  <anchor x="388" y="0" name="bottom"/>
  <anchor x="388" y="263" name="center"/>
  <anchor x="543" y="10" name="ogonek"/>
  <anchor x="388" y="525" name="top"/>
  <anchor x="558" y="465" name="topright"/>
  <outline>
    <contour>
      <point x="388" y="536" type="qcurve"/>
      <point x="541" y="536"/>
      <point x="735" y="381"/>
      <point x="735" y="263" type="qcurve"/>
      <point x="735" y="145"/>
      <point x="541" y="-10"/>
      <point x="388" y="-10" type="qcurve"/>
      <point x="231" y="-10"/>
      <point x="40" y="143"/>
      <point x="40" y="263" type="qcurve"/>
      <point x="40" y="381"/>
      <point x="231" y="536"/>
    </contour>
    <contour>
      <point x="388" y="12" type="qcurve"/>
      <point x="525" y="12"/>
      <point x="712" y="151"/>
      <point x="713" y="263" type="qcurve"/>
      <point x="714" y="371"/>
      <point x="527" y="514"/>
      <point x="388" y="514" type="qcurve"/>
      <point x="245" y="514"/>
      <point x="63" y="372"/>
      <point x="62" y="263" type="qcurve"/>
      <point x="60" y="152"/>
      <point x="249" y="12"/>
    </contour>
  </outline>
</glyph>
<glyph name="q" format="2">
  <advance width="734"/>
  <unicode hex="0071"/>
  <note>
q
</note>
  <anchor x="343" y="0" name="bottom"/>
  <anchor x="343" y="525" name="top"/>
  <outline>
    <contour>
      <point x="635" y="525" type="line"/>
      <point x="655" y="525" type="line"/>
      <point x="655" y="-230" type="line"/>
      <point x="633" y="-230" type="line"/>
      <point x="633" y="183" type="line"/>
      <point x="645" y="183" type="line"/>
      <point x="600" y="82"/>
      <point x="448" y="-5"/>
      <point x="342" y="-5" type="qcurve"/>
      <point x="209" y="-5"/>
      <point x="40" y="144"/>
      <point x="40" y="262" type="qcurve"/>
      <point x="40" y="379"/>
      <point x="214" y="536"/>
      <point x="342" y="536" type="qcurve"/>
      <point x="448" y="536"/>
      <point x="605" y="444"/>
      <point x="645" y="341" type="qcurve"/>
      <point x="633" y="342" type="line"/>
    </contour>
    <contour>
      <point x="62" y="262" type="qcurve"/>
      <point x="61" y="154"/>
      <point x="222" y="17"/>
      <point x="342" y="17" type="qcurve"/>
      <point x="475" y="17"/>
      <point x="632" y="156"/>
      <point x="633" y="260" type="qcurve"/>
      <point x="631" y="374"/>
      <point x="471" y="514"/>
      <point x="342" y="514" type="qcurve"/>
      <point x="224" y="514"/>
      <point x="63" y="374"/>
    </contour>
  </outline>
</glyph>
<glyph name="s" format="2">
  <advance width="639"/>
  <unicode hex="0073"/>
  <note>
s
</note>
  <outline>
    <contour>
      <point x="45" y="91" type="qcurve"/>
      <point x="61" y="110" type="line"/>
      <point x="105" y="63"/>
      <point x="245" y="12"/>
      <point x="330" y="12" type="qcurve"/>
      <point x="442" y="12"/>
      <point x="563" y="77"/>
      <point x="563" y="137" type="qcurve"/>
      <point x="563" y="183"/>
      <point x="455" y="235"/>
      <point x="311" y="255" type="qcurve" smooth="yes"/>
      <point x="170" y="274"/>
      <point x="64" y="332"/>
      <point x="64" y="392" type="qcurve"/>
      <point x="64" y="455"/>
      <point x="204" y="536"/>
      <point x="312" y="536" type="qcurve"/>
      <point x="380" y="536"/>
      <point x="532" y="485"/>
      <point x="582" y="445" type="qcurve"/>
      <point x="569" y="427" type="line"/>
      <point x="522" y="465"/>
      <point x="378" y="514"/>
      <point x="313" y="514" type="qcurve"/>
      <point x="214" y="514"/>
      <point x="86" y="446"/>
      <point x="86" y="394" type="qcurve"/>
      <point x="86" y="345"/>
      <point x="184" y="296"/>
      <point x="315" y="278" type="qcurve" smooth="yes"/>
      <point x="470" y="257"/>
      <point x="585" y="195"/>
      <point x="585" y="138" type="qcurve"/>
      <point x="585" y="67"/>
      <point x="458" y="-10"/>
      <point x="339" y="-10" type="qcurve"/>
      <point x="243" y="-10"/>
      <point x="90" y="42"/>
    </contour>
  </outline>
</glyph>
<glyph name="t" format="2">
  <advance width="490"/>
  <unicode hex="0074"/>
  <note>
t
</note>
  <anchor x="248" y="0" name="bottom"/>
  <anchor x="244" y="233" name="center"/>
  <anchor x="244" y="687" name="top"/>
  <anchor x="490" y="700" name="topright"/>
  <outline>
    <contour>
      <point x="255" y="689" type="line"/>
      <point x="255" y="0" type="line"/>
      <point x="233" y="0" type="line"/>
      <point x="233" y="689" type="line"/>
    </contour>
    <contour>
      <point x="475" y="525" type="line"/>
      <point x="475" y="503" type="line"/>
      <point x="20" y="503" type="line"/>
      <point x="20" y="525" type="line"/>
    </contour>
  </outline>
</glyph>
<glyph name="v" format="2">
  <advance width="637"/>
  <unicode hex="0076"/>
  <note>
v
</note>
  <anchor x="320" y="0" name="bottom"/>
  <anchor x="320" y="525" name="top"/>
  <outline>
    <contour>
      <point x="15" y="525" type="line"/>
      <point x="41" y="525" type="line"/>
      <point x="323" y="14" type="line"/>
      <point x="316" y="14" type="line"/>
      <point x="596" y="525" type="line"/>
      <point x="622" y="525" type="line"/>
      <point x="333" y="0" type="line"/>
      <point x="306" y="0" type="line"/>
    </contour>
  </outline>
</glyph>
<glyph name="z" format="2">
  <advance width="569"/>
  <unicode hex="007A"/>
  <note>
z
</note>
  <outline>
    <contour>
      <point x="52" y="22" type="line"/>
      <point x="534" y="22" type="line"/>
      <point x="534" y="0" type="line"/>
      <point x="35" y="0" type="line"/>
      <point x="35" y="26" type="line"/>
      <point x="499" y="514" type="line"/>
      <point x="501" y="503" type="line"/>
      <point x="35" y="503" type="line"/>
      <point x="35" y="525" type="line"/>
      <point x="513" y="525" type="line"/>
      <point x="513" y="497" type="line"/>
      <point x="53" y="13" type="line"/>
    </contour>
  </outline>
</glyph>
<glyph name="asciitilde" format="2">
  <advance width="688"/>
  <unicode hex="007E"/>
  <note>
asciitilde
</note>
  <outline>
    <contour>
      <point x="502" y="300" type="qcurve"/>
      <point x="452" y="300"/>
      <point x="348" y="353"/>
      <point x="335" y="360" type="qcurve" smooth="yes"/>
      <point x="324" y="366"/>
      <point x="231" y="413"/>
      <point x="181" y="413" type="qcurve"/>
      <point x="144" y="413"/>
      <point x="99" y="368"/>
      <point x="99" y="324" type="qcurve"/>
      <point x="76" y="324" type="line"/>
      <point x="76" y="375"/>
      <point x="136" y="435"/>
      <point x="183" y="435" type="qcurve"/>
      <point x="233" y="435"/>
      <point x="340" y="382"/>
      <point x="353" y="375" type="qcurve" smooth="yes"/>
      <point x="364" y="369"/>
      <point x="455" y="322"/>
      <point x="504" y="322" type="qcurve"/>
      <point x="538" y="322"/>
      <point x="587" y="370"/>
      <point x="587" y="415" type="qcurve"/>
      <point x="610" y="415" type="line"/>
      <point x="610" y="365"/>
      <point x="553" y="300"/>
    </contour>
  </outline>
</glyph>
<glyph name="cent" format="2">
  <advance width="725"/>
  <unicode hex="00A2"/>
  <note>
cent
</note>
  <anchor x="435" y="88" name="bottom"/>
  <anchor x="455" y="613" name="top"/>
  <outline>
    <contour>
      <point x="388" y="77" type="line"/>
      <point x="388" y="0" type="line"/>
      <point x="366" y="0" type="line"/>
      <point x="366" y="78" type="line"/>
      <point x="366" y="111" type="line"/>
      <point x="366" y="579" type="line"/>
      <point x="366" y="606" type="line"/>
      <point x="366" y="700" type="line"/>
      <point x="388" y="700" type="line"/>
      <point x="388" y="605" type="line"/>
      <point x="388" y="579" type="line"/>
      <point x="388" y="111" type="line"/>
    </contour>
    <contour>
      <point x="378" y="598" type="qcurve"/>
      <point x="242" y="598"/>
      <point x="67" y="456"/>
      <point x="67" y="349" type="qcurve"/>
      <point x="67" y="243"/>
      <point x="242" y="102"/>
      <point x="378" y="102" type="qcurve"/>
      <point x="467" y="102"/>
      <point x="614" y="158"/>
      <point x="668" y="206" type="qcurve"/>
      <point x="679" y="187" type="line"/>
      <point x="624" y="138"/>
      <point x="470" y="80"/>
      <point x="378" y="80" type="qcurve"/>
      <point x="230" y="80"/>
      <point x="44" y="234"/>
      <point x="44" y="349" type="qcurve"/>
      <point x="44" y="465"/>
      <point x="230" y="620"/>
      <point x="378" y="620" type="qcurve"/>
      <point x="473" y="620"/>
      <point x="630" y="558"/>
      <point x="685" y="506" type="qcurve"/>
      <point x="677" y="484" type="line"/>
      <point x="625" y="536"/>
      <point x="471" y="598"/>
    </contour>
  </outline>
</glyph>
<glyph name="yen" format="2">
  <advance width="792"/>
  <unicode hex="00A5"/>
  <note>
yen
</note>
  <anchor x="480" y="0" name="bottom"/>
  <anchor x="480" y="700" name="top"/>
  <anchor x="8" y="700" name="topleft"/>
  <outline>
    <contour>
      <point x="613" y="119" type="line"/>
      <point x="195" y="119" type="line"/>
      <point x="195" y="141" type="line"/>
      <point x="613" y="141" type="line"/>
    </contour>
    <contour>
      <point x="613" y="254" type="line"/>
      <point x="195" y="254" type="line"/>
      <point x="195" y="276" type="line"/>
      <point x="613" y="276" type="line"/>
    </contour>
    <contour>
      <point x="728" y="700" type="line"/>
      <point x="757" y="700" type="line"/>
      <point x="407" y="255" type="line"/>
      <point x="416" y="276" type="line"/>
      <point x="416" y="0" type="line"/>
      <point x="394" y="0" type="line"/>
      <point x="394" y="276" type="line"/>
      <point x="402" y="255" type="line"/>
      <point x="45" y="700" type="line"/>
      <point x="74" y="700" type="line"/>
      <point x="411" y="281" type="line"/>
      <point x="399" y="281" type="line"/>
    </contour>
  </outline>
</glyph>
<glyph name="section" format="2">
  <advance width="659"/>
  <unicode hex="00A7"/>
  <note>
section
</note>
  <outline>
    <contour>
      <point x="339" y="413" type="qcurve" smooth="yes"/>
      <point x="465" y="370"/>
      <point x="579" y="298"/>
      <point x="579" y="247" type="qcurve"/>
      <point x="579" y="198"/>
      <point x="527" y="144"/>
      <point x="470" y="132" type="qcurve"/>
      <point x="466" y="143" type="line"/>
      <point x="520" y="121"/>
      <point x="557" y="76"/>
      <point x="557" y="46" type="qcurve" smooth="yes"/>
      <point x="557" y="-20"/>
      <point x="428" y="-97"/>
      <point x="322" y="-97" type="qcurve" smooth="yes"/>
      <point x="230" y="-97"/>
      <point x="85" y="-46"/>
      <point x="57" y="-6" type="qcurve"/>
      <point x="75" y="10" type="line"/>
      <point x="110" y="-35"/>
      <point x="245" y="-75"/>
      <point x="322" y="-75" type="qcurve"/>
      <point x="415" y="-75"/>
      <point x="534" y="-11"/>
      <point x="534" y="46" type="qcurve"/>
      <point x="534" y="88"/>
      <point x="433" y="134"/>
      <point x="278" y="190" type="qcurve" smooth="yes"/>
      <point x="142" y="239"/>
      <point x="77" y="287"/>
      <point x="77" y="326" type="qcurve"/>
      <point x="77" y="370"/>
      <point x="154" y="430"/>
      <point x="225" y="442" type="qcurve"/>
      <point x="220" y="435" type="line"/>
      <point x="162" y="455"/>
      <point x="99" y="516"/>
      <point x="99" y="552" type="qcurve"/>
      <point x="99" y="606"/>
      <point x="217" y="665"/>
      <point x="326" y="665" type="qcurve" smooth="yes"/>
      <point x="397" y="665"/>
      <point x="527" y="621"/>
      <point x="576" y="581" type="qcurve"/>
      <point x="560" y="563" type="line"/>
      <point x="511" y="602"/>
      <point x="390" y="643"/>
      <point x="326" y="643" type="qcurve"/>
      <point x="228" y="643"/>
      <point x="122" y="596"/>
      <point x="122" y="553" type="qcurve" smooth="yes"/>
      <point x="122" y="509"/>
      <point x="225" y="452"/>
    </contour>
    <contour>
      <point x="100" y="331" type="qcurve"/>
      <point x="100" y="298"/>
      <point x="158" y="257"/>
      <point x="235" y="229" type="qcurve" smooth="yes"/>
      <point x="452" y="149" type="line" smooth="yes"/>
      <point x="458" y="147"/>
      <point x="471" y="147"/>
      <point x="473" y="148" type="qcurve" smooth="yes"/>
      <point x="517" y="163"/>
      <point x="556" y="210"/>
      <point x="556" y="247" type="qcurve"/>
      <point x="556" y="282"/>
      <point x="461" y="348"/>
      <point x="335" y="392" type="qcurve" smooth="yes"/>
      <point x="257" y="419" type="line" smooth="yes"/>
      <point x="250" y="422"/>
      <point x="224" y="423"/>
      <point x="212" y="420" type="qcurve" smooth="yes"/>
      <point x="158" y="407"/>
      <point x="100" y="361"/>
    </contour>
  </outline>
</glyph>
<glyph name="dieresis" format="2">
  <advance width="289"/>
  <unicode hex="00A8"/>
  <anchor x="157" y="515" name="_top"/>
  <outline>
    <contour>
      <point x="97" y="683" type="qcurve" smooth="yes"/>
      <point x="97" y="672"/>
      <point x="81" y="656"/>
      <point x="70" y="656" type="qcurve" smooth="yes"/>
      <point x="58" y="656"/>
      <point x="42" y="672"/>
      <point x="42" y="683" type="qcurve" smooth="yes"/>
      <point x="42" y="695"/>
      <point x="58" y="710"/>
      <point x="70" y="710" type="qcurve" smooth="yes"/>
      <point x="81" y="710"/>
      <point x="97" y="695"/>
    </contour>
    <contour>
      <point x="247" y="683" type="qcurve" smooth="yes"/>
      <point x="247" y="672"/>
      <point x="231" y="656"/>
      <point x="220" y="656" type="qcurve" smooth="yes"/>
      <point x="208" y="656"/>
      <point x="192" y="672"/>
      <point x="192" y="683" type="qcurve" smooth="yes"/>
      <point x="192" y="695"/>
      <point x="208" y="710"/>
      <point x="220" y="710" type="qcurve" smooth="yes"/>
      <point x="231" y="710"/>
      <point x="247" y="695"/>
    </contour>
  </outline>
</glyph>
<glyph name="ordfeminine" format="2">
  <advance width="385"/>
  <unicode hex="00AA"/>
  <note>
ordfeminine
</note>
  <outline>
    <contour>
      <point x="186" y="402" type="qcurve"/>
      <point x="110" y="402"/>
      <point x="30" y="500"/>
      <point x="30" y="561" type="qcurve"/>
      <point x="30" y="626"/>
      <point x="116" y="721"/>
      <point x="186" y="721" type="qcurve"/>
      <point x="228" y="721"/>
      <point x="303" y="680"/>
      <point x="316" y="641" type="qcurve"/>
      <point x="310" y="644" type="line"/>
      <point x="311" y="716" type="line"/>
      <point x="330" y="716" type="line"/>
      <point x="330" y="403" type="line"/>
      <point x="310" y="403" type="line"/>
      <point x="310" y="478" type="line"/>
      <point x="317" y="484" type="line"/>
      <point x="307" y="450"/>
      <point x="235" y="402"/>
    </contour>
    <contour>
      <point x="50" y="561" type="qcurve"/>
      <point x="50" y="507"/>
      <point x="124" y="422"/>
      <point x="185" y="422" type="qcurve"/>
      <point x="237" y="422"/>
      <point x="312" y="482"/>
      <point x="312" y="561" type="qcurve"/>
      <point x="312" y="639"/>
      <point x="238" y="701"/>
      <point x="185" y="701" type="qcurve"/>
      <point x="126" y="701"/>
      <point x="50" y="621"/>
    </contour>
  </outline>
</glyph>
<glyph name="registered" format="2">
  <advance width="525"/>
  <unicode hex="00AE"/>
  <note>
registered
</note>
  <outline>
    <contour>
      <point x="490" y="483" type="qcurve" smooth="yes"/>
      <point x="490" y="389"/>
      <point x="353" y="257"/>
      <point x="259" y="257" type="qcurve" smooth="yes"/>
      <point x="165" y="257"/>
      <point x="28" y="389"/>
      <point x="28" y="483" type="qcurve" smooth="yes"/>
      <point x="28" y="576"/>
      <point x="165" y="709"/>
      <point x="259" y="709" type="qcurve" smooth="yes"/>
      <point x="354" y="709"/>
      <point x="490" y="577"/>
    </contour>
    <contour>
      <point x="345" y="532" type="qcurve" smooth="yes"/>
      <point x="345" y="502"/>
      <point x="299" y="464"/>
      <point x="265" y="464" type="qcurve"/>
      <point x="204" y="464" type="line"/>
      <point x="211" y="469" type="line"/>
      <point x="211" y="367" type="line"/>
      <point x="191" y="367" type="line"/>
      <point x="191" y="606" type="line"/>
      <point x="268" y="606" type="line" smooth="yes"/>
      <point x="302" y="606"/>
      <point x="345" y="564"/>
    </contour>
    <contour>
      <point x="204" y="484" type="line"/>
      <point x="263" y="484" type="line" smooth="yes"/>
      <point x="290" y="484"/>
      <point x="324" y="512"/>
      <point x="324" y="533" type="qcurve" smooth="yes"/>
      <point x="324" y="556"/>
      <point x="291" y="586"/>
      <point x="265" y="586" type="qcurve"/>
      <point x="200" y="586" type="line"/>
      <point x="211" y="594" type="line"/>
      <point x="211" y="478" type="line"/>
    </contour>
    <contour>
      <point x="48" y="483" type="qcurve" smooth="yes"/>
      <point x="48" y="397"/>
      <point x="174" y="277"/>
      <point x="259" y="277" type="qcurve" smooth="yes"/>
      <point x="345" y="277"/>
      <point x="470" y="397"/>
      <point x="470" y="483" type="qcurve" smooth="yes"/>
      <point x="470" y="570"/>
      <point x="345" y="689"/>
      <point x="259" y="689" type="qcurve" smooth="yes"/>
      <point x="174" y="689"/>
      <point x="48" y="570"/>
    </contour>
    <contour>
      <point x="325" y="367" type="line"/>
      <point x="284" y="471" type="line"/>
      <point x="303" y="479" type="line"/>
      <point x="348" y="367" type="line"/>
    </contour>
  </outline>
</glyph>
<glyph name="macron" format="2">
  <advance width="464"/>
  <unicode hex="00AF"/>
  <outline>
    <contour>
      <point x="387" y="634" type="line"/>
      <point x="77" y="634" type="line"/>
      <point x="77" y="656" type="line"/>
      <point x="387" y="656" type="line"/>
    </contour>
  </outline>
</glyph>
<glyph name="degree" format="2">
  <advance width="530"/>
  <unicode hex="00B0"/>
  <note>
degree
</note>
  <outline>
    <contour>
      <point x="420" y="554" type="qcurve" smooth="yes"/>
      <point x="420" y="489"/>
      <point x="330" y="399"/>
      <point x="265" y="399" type="qcurve" smooth="yes"/>
      <point x="200" y="399"/>
      <point x="110" y="489"/>
      <point x="110" y="554" type="qcurve" smooth="yes"/>
      <point x="110" y="619"/>
      <point x="200" y="709"/>
      <point x="265" y="709" type="qcurve" smooth="yes"/>
      <point x="330" y="709"/>
      <point x="420" y="619"/>
    </contour>
    <contour>
      <point x="132" y="554" type="qcurve" smooth="yes"/>
      <point x="132" y="498"/>
      <point x="209" y="421"/>
      <point x="265" y="421" type="qcurve" smooth="yes"/>
      <point x="321" y="421"/>
      <point x="398" y="498"/>
      <point x="398" y="554" type="qcurve" smooth="yes"/>
      <point x="398" y="610"/>
      <point x="321" y="687"/>
      <point x="265" y="687" type="qcurve" smooth="yes"/>
      <point x="209" y="687"/>
      <point x="132" y="610"/>
    </contour>
  </outline>
</glyph>
<glyph name="paragraph" format="2">
  <advance width="754"/>
  <unicode hex="00B6"/>
  <note>
paragraph
</note>
  <outline>
    <contour>
      <point x="642" y="0" type="line"/>
      <point x="620" y="0" type="line"/>
      <point x="620" y="690" type="line"/>
      <point x="631" y="678" type="line"/>
      <point x="419" y="678" type="line"/>
      <point x="432" y="690" type="line"/>
      <point x="432" y="0" type="line"/>
      <point x="410" y="0" type="line"/>
      <point x="410" y="291" type="line"/>
      <point x="421" y="279" type="line"/>
      <point x="336" y="279" type="line" smooth="yes"/>
      <point x="206" y="279"/>
      <point x="78" y="393"/>
      <point x="78" y="486" type="qcurve" smooth="yes"/>
      <point x="78" y="586"/>
      <point x="222" y="700"/>
      <point x="373" y="700" type="qcurve"/>
      <point x="642" y="700" type="line"/>
    </contour>
  </outline>
</glyph>
<glyph name="AE" format="2">
  <advance width="1199"/>
  <unicode hex="00C6"/>
  <note>
AE
</note>
  <anchor x="711" y="0" name="bottom"/>
  <anchor x="760" y="700" name="top"/>
  <outline>
    <contour>
      <point x="213" y="216" type="line"/>
      <point x="234" y="238" type="line"/>
      <point x="634" y="238" type="line"/>
      <point x="626" y="232" type="line"/>
      <point x="626" y="678" type="line"/>
      <point x="633" y="678" type="line"/>
      <point x="31" y="0" type="line"/>
      <point x="0" y="0" type="line"/>
      <point x="621" y="700" type="line"/>
      <point x="1134" y="700" type="line"/>
      <point x="1134" y="678" type="line"/>
      <point x="639" y="678" type="line"/>
      <point x="648" y="687" type="line"/>
      <point x="648" y="355" type="line"/>
      <point x="641" y="362" type="line"/>
      <point x="1077" y="362" type="line"/>
      <point x="1077" y="340" type="line"/>
      <point x="641" y="340" type="line"/>
      <point x="648" y="346" type="line"/>
      <point x="648" y="9" type="line"/>
      <point x="637" y="22" type="line"/>
      <point x="1134" y="22" type="line"/>
      <point x="1134" y="0" type="line"/>
      <point x="626" y="0" type="line"/>
      <point x="626" y="223" type="line"/>
      <point x="634" y="216" type="line"/>
    </contour>
  </outline>
</glyph>
<glyph name="Oslash" format="2">
  <advance width="958"/>
  <unicode hex="00D8"/>
  <note>
Oslash
</note>
  <outline>
    <contour>
      <point x="84" y="-19" type="line"/>
      <point x="66" y="-5" type="line"/>
      <point x="872" y="714" type="line"/>
      <point x="891" y="699" type="line"/>
    </contour>
    <contour>
      <point x="479" y="710" type="qcurve"/>
      <point x="666" y="710"/>
      <point x="903" y="505"/>
      <point x="903" y="349" type="qcurve"/>
      <point x="903" y="194"/>
      <point x="666" y="-10"/>
      <point x="479" y="-10" type="qcurve"/>
      <point x="291" y="-10"/>
      <point x="55" y="195"/>
      <point x="55" y="349" type="qcurve"/>
      <point x="55" y="503"/>
      <point x="291" y="710"/>
    </contour>
    <contour>
      <point x="479" y="12" type="qcurve" smooth="yes"/>
      <point x="655" y="12"/>
      <point x="880" y="204"/>
      <point x="880" y="349" type="qcurve"/>
      <point x="880" y="494"/>
      <point x="655" y="688"/>
      <point x="479" y="688" type="qcurve" smooth="yes"/>
      <point x="303" y="688"/>
      <point x="78" y="494"/>
      <point x="78" y="349" type="qcurve"/>
      <point x="78" y="204"/>
      <point x="303" y="12"/>
    </contour>
  </outline>
</glyph>
<glyph name="germandbls" format="2">
  <advance width="789"/>
  <unicode hex="00DF"/>
  <note>
germandbls
</note>
  <outline>
    <contour>
      <point x="157" y="416" type="line"/>
      <point x="40" y="416" type="line"/>
      <point x="40" y="438" type="line"/>
      <point x="157" y="438" type="line"/>
    </contour>
    <contour>
      <point x="167" y="0" type="line"/>
      <point x="145" y="0" type="line"/>
      <point x="145" y="484" type="line"/>
      <point x="145" y="589"/>
      <point x="291" y="708"/>
      <point x="431" y="708" type="qcurve"/>
      <point x="548" y="708"/>
      <point x="674" y="630"/>
      <point x="674" y="557" type="qcurve"/>
      <point x="674" y="483"/>
      <point x="549" y="402"/>
      <point x="433" y="401" type="qcurve"/>
      <point x="433" y="411" type="line"/>
      <point x="584" y="379"/>
      <point x="747" y="256"/>
      <point x="747" y="174" type="qcurve"/>
      <point x="747" y="86"/>
      <point x="628" y="-9"/>
      <point x="517" y="-10" type="qcurve"/>
      <point x="432" y="-9"/>
      <point x="300" y="47"/>
      <point x="263" y="98" type="qcurve"/>
      <point x="272" y="124" type="line"/>
      <point x="311" y="70"/>
      <point x="439" y="12"/>
      <point x="519" y="12" type="qcurve"/>
      <point x="618" y="12"/>
      <point x="724" y="98"/>
      <point x="724" y="178" type="qcurve"/>
      <point x="723" y="247"/>
      <point x="568" y="359"/>
      <point x="425" y="394" type="qcurve"/>
      <point x="425" y="417" type="line"/>
      <point x="534" y="422"/>
      <point x="651" y="495"/>
      <point x="651" y="557" type="qcurve"/>
      <point x="651" y="619"/>
      <point x="538" y="686"/>
      <point x="432" y="686" type="qcurve"/>
      <point x="303" y="686"/>
      <point x="167" y="578"/>
      <point x="167" y="473" type="qcurve"/>
    </contour>
  </outline>
</glyph>
<glyph name="ae" format="2">
  <advance width="1212"/>
  <unicode hex="00E6"/>
  <note>
ae
</note>
  <anchor x="748" y="0" name="bottom"/>
  <anchor x="748" y="525" name="top"/>
  <outline>
    <contour>
      <point x="342" y="530" type="qcurve"/>
      <point x="440" y="530"/>
      <point x="584" y="449"/>
      <point x="584" y="348" type="qcurve"/>
      <point x="584" y="276" type="line"/>
      <point x="562" y="276" type="line"/>
      <point x="562" y="347" type="line"/>
      <point x="562" y="431"/>
      <point x="444" y="509"/>
      <point x="341" y="509" type="qcurve"/>
      <point x="273" y="509"/>
      <point x="143" y="461"/>
      <point x="87" y="421" type="qcurve"/>
      <point x="73" y="438" type="line"/>
      <point x="132" y="480"/>
      <point x="263" y="530"/>
    </contour>
    <contour>
      <point x="584" y="263" type="qcurve"/>
      <point x="585" y="154"/>
      <point x="767" y="14"/>
      <point x="909" y="14" type="qcurve"/>
      <point x="999" y="14"/>
      <point x="1116" y="58"/>
      <point x="1159" y="86" type="qcurve"/>
      <point x="1164" y="63" type="line"/>
      <point x="1106" y="27"/>
      <point x="996" y="-10"/>
      <point x="910" y="-10" type="qcurve"/>
      <point x="750" y="-10"/>
      <point x="562" y="145"/>
      <point x="562" y="263" type="qcurve"/>
      <point x="562" y="394"/>
      <point x="762" y="530"/>
      <point x="897" y="530" type="qcurve"/>
      <point x="1024" y="530"/>
      <point x="1192" y="405"/>
      <point x="1192" y="291" type="qcurve"/>
      <point x="1190" y="265" type="line"/>
      <point x="301" y="265" type="line"/>
      <point x="167" y="265"/>
      <point x="62" y="209"/>
      <point x="62" y="150" type="qcurve"/>
      <point x="62" y="84"/>
      <point x="177" y="12"/>
      <point x="286" y="12" type="qcurve"/>
      <point x="394" y="12"/>
      <point x="555" y="112"/>
      <point x="588" y="162" type="qcurve"/>
      <point x="600" y="145" type="line"/>
      <point x="566" y="90"/>
      <point x="401" y="-10"/>
      <point x="285" y="-10" type="qcurve"/>
      <point x="163" y="-10"/>
      <point x="40" y="76"/>
      <point x="40" y="149" type="qcurve"/>
      <point x="40" y="209"/>
      <point x="141" y="287"/>
      <point x="307" y="287" type="qcurve"/>
      <point x="1180" y="287" type="line"/>
      <point x="1170" y="272" type="line"/>
      <point x="1170" y="295" type="line"/>
      <point x="1170" y="395"/>
      <point x="1008" y="508"/>
      <point x="900" y="508" type="qcurve"/>
      <point x="777" y="508"/>
      <point x="585" y="388"/>
    </contour>
  </outline>
</glyph>
<glyph name="eth" format="2">
  <advance width="724"/>
  <unicode hex="00F0"/>
  <note>
eth
</note>
  <outline>
    <contour>
      <point x="686" y="261" type="qcurve"/>
      <point x="686" y="143"/>
      <point x="501" y="-10"/>
      <point x="358" y="-10" type="qcurve"/>
      <point x="219" y="-10"/>
      <point x="40" y="144"/>
      <point x="40" y="263" type="qcurve"/>
      <point x="40" y="378"/>
      <point x="213" y="527"/>
      <point x="347" y="527" type="qcurve" smooth="yes"/>
      <point x="476" y="527"/>
      <point x="646" y="416"/>
      <point x="671" y="333" type="qcurve"/>
      <point x="657" y="327" type="line"/>
      <point x="663" y="425"/>
      <point x="461" y="679"/>
      <point x="361" y="728" type="qcurve"/>
      <point x="381" y="739" type="line"/>
      <point x="468" y="698"/>
      <point x="686" y="432"/>
    </contour>
    <contour>
      <point x="62" y="263" type="qcurve"/>
      <point x="62" y="153"/>
      <point x="229" y="12"/>
      <point x="358" y="12" type="qcurve"/>
      <point x="491" y="12"/>
      <point x="663" y="153"/>
      <point x="663" y="263" type="qcurve"/>
      <point x="663" y="369"/>
      <point x="485" y="505"/>
      <point x="348" y="505" type="qcurve"/>
      <point x="223" y="505"/>
      <point x="62" y="369"/>
    </contour>
    <contour>
      <point x="502" y="623" type="line"/>
      <point x="304" y="594" type="line"/>
      <point x="300" y="616" type="line"/>
      <point x="484" y="641" type="line"/>
      <point x="497" y="644" type="line"/>
      <point x="627" y="664" type="line"/>
      <point x="632" y="643" type="line"/>
      <point x="517" y="626" type="line"/>
    </contour>
  </outline>
</glyph>
<glyph name="oslash" format="2">
  <advance width="775"/>
  <unicode hex="00F8"/>
  <note>
oslash
</note>
  <anchor x="465" y="530" name="top"/>
  <anchor x="478" y="0" name="bottom"/>
  <anchor x="478" y="263" name="center"/>
  <anchor x="860" y="10" name="ogonek"/>
  <anchor x="596" y="475" name="topright"/>
  <outline>
    <contour>
      <point x="82" y="1" type="line"/>
      <point x="75" y="22" type="line"/>
      <point x="685" y="529" type="line"/>
      <point x="692" y="507" type="line"/>
    </contour>
    <contour>
      <point x="388" y="529" type="qcurve"/>
      <point x="546" y="529"/>
      <point x="735" y="381"/>
      <point x="735" y="263" type="qcurve"/>
      <point x="735" y="143"/>
      <point x="546" y="-10"/>
      <point x="388" y="-10" type="qcurve"/>
      <point x="231" y="-10"/>
      <point x="40" y="143"/>
      <point x="40" y="263" type="qcurve"/>
      <point x="40" y="381"/>
      <point x="231" y="529"/>
    </contour>
    <contour>
      <point x="388" y="12" type="qcurve"/>
      <point x="525" y="12"/>
      <point x="713" y="152"/>
      <point x="713" y="263" type="qcurve"/>
      <point x="713" y="370"/>
      <point x="525" y="507"/>
      <point x="388" y="507" type="qcurve"/>
      <point x="250" y="507"/>
      <point x="62" y="372"/>
      <point x="62" y="263" type="qcurve"/>
      <point x="62" y="152"/>
      <point x="250" y="12"/>
    </contour>
  </outline>
</glyph>
<glyph name="thorn" format="2">
  <advance width="755"/>
  <unicode hex="00FE"/>
  <note>
thorn
</note>
  <anchor x="505" y="0" name="bottom"/>
  <anchor x="505" y="525" name="top"/>
  <outline>
    <contour>
      <point x="394" y="530" type="qcurve"/>
      <point x="525" y="530"/>
      <point x="715" y="378"/>
      <point x="715" y="259" type="qcurve"/>
      <point x="715" y="140"/>
      <point x="528" y="-10"/>
      <point x="393" y="-10" type="qcurve"/>
      <point x="270" y="-10"/>
      <point x="111" y="93"/>
      <point x="87" y="164" type="qcurve"/>
      <point x="95" y="164" type="line"/>
      <point x="95" y="-230" type="line"/>
      <point x="73" y="-230" type="line"/>
      <point x="73" y="740" type="line"/>
      <point x="95" y="740" type="line"/>
      <point x="95" y="352" type="line"/>
      <point x="87" y="353" type="line"/>
      <point x="113" y="426"/>
      <point x="275" y="530"/>
    </contour>
    <contour>
      <point x="693" y="259" type="qcurve"/>
      <point x="693" y="366"/>
      <point x="521" y="508"/>
      <point x="389" y="508" type="qcurve"/>
      <point x="260" y="508"/>
      <point x="92" y="366"/>
      <point x="92" y="260" type="qcurve"/>
      <point x="92" y="151"/>
      <point x="261" y="12"/>
      <point x="389" y="12" type="qcurve"/>
      <point x="524" y="12"/>
      <point x="693" y="153"/>
    </contour>
  </outline>
</glyph>
<glyph name="Aogonek" format="2">
  <advance width="758"/>
  <unicode hex="0104"/>
  <outline>
    <contour>
      <point x="724" y="2" type="line"/>
      <point x="713" y="2" type="line"/>
      <point x="438" y="564" type="line" smooth="yes"/>
      <point x="426" y="587"/>
      <point x="412" y="616"/>
      <point x="406" y="627" type="qcurve" smooth="yes"/>
      <point x="400" y="640"/>
      <point x="387" y="665"/>
      <point x="376" y="687" type="qcurve"/>
      <point x="382" y="687" type="line"/>
      <point x="371" y="665"/>
      <point x="359" y="640"/>
      <point x="352" y="627" type="qcurve" smooth="yes"/>
      <point x="347" y="616"/>
      <point x="332" y="587"/>
      <point x="320" y="563" type="qcurve"/>
      <point x="45" y="0" type="line"/>
      <point x="20" y="0" type="line"/>
      <point x="364" y="700" type="line"/>
      <point x="395" y="700" type="line"/>
      <point x="736" y="7" type="line"/>
      <point x="736" y="0" type="line"/>
      <point x="690" y="-9"/>
      <point x="597" y="-76"/>
      <point x="597" y="-131" type="qcurve" smooth="yes"/>
      <point x="597" y="-164"/>
      <point x="641" y="-209"/>
      <point x="675" y="-209" type="qcurve" smooth="yes"/>
      <point x="703" y="-209"/>
      <point x="741" y="-182"/>
      <point x="750" y="-164" type="qcurve"/>
      <point x="765" y="-177" type="line"/>
      <point x="755" y="-197"/>
      <point x="709" y="-231"/>
      <point x="675" y="-231" type="qcurve" smooth="yes"/>
      <point x="635" y="-231"/>
      <point x="575" y="-175"/>
      <point x="575" y="-131" type="qcurve" smooth="yes"/>
      <point x="575" y="-70"/>
      <point x="664" y="2"/>
      <point x="720" y="15" type="qcurve"/>
    </contour>
    <contour>
      <point x="374" y="221" type="line"/>
      <point x="143" y="221" type="line"/>
      <point x="154" y="243" type="line"/>
      <point x="374" y="243" type="line"/>
    </contour>
    <contour>
      <point x="619" y="221" type="line"/>
      <point x="374" y="221" type="line"/>
      <point x="374" y="243" type="line"/>
      <point x="609" y="243" type="line"/>
    </contour>
  </outline>
</glyph>
<glyph name="aogonek" format="2">
  <advance width="744"/>
  <unicode hex="0105"/>
  <note>
aogonek
</note>
  <outline>
    <contour>
      <point x="564" y="48" type="qcurve" smooth="yes"/>
      <point x="525" y="21"/>
      <point x="425" y="-10"/>
      <point x="370" y="-10" type="qcurve"/>
      <point x="212" y="-10"/>
      <point x="40" y="137"/>
      <point x="40" y="257" type="qcurve"/>
      <point x="40" y="375"/>
      <point x="223" y="530"/>
      <point x="363" y="530" type="qcurve"/>
      <point x="473" y="530"/>
      <point x="628" y="428"/>
      <point x="655" y="358" type="qcurve"/>
      <point x="652" y="357" type="line"/>
      <point x="654" y="525" type="line"/>
      <point x="674" y="525" type="line"/>
      <point x="674" y="0" type="line"/>
      <point x="622" y="-9"/>
      <point x="541" y="-75"/>
      <point x="541" y="-130" type="qcurve" smooth="yes"/>
      <point x="541" y="-163"/>
      <point x="582" y="-208"/>
      <point x="614" y="-208" type="qcurve" smooth="yes"/>
      <point x="640" y="-208"/>
      <point x="675" y="-181"/>
      <point x="684" y="-163" type="qcurve"/>
      <point x="699" y="-176" type="line"/>
      <point x="689" y="-196"/>
      <point x="646" y="-230"/>
      <point x="614" y="-230" type="qcurve" smooth="yes"/>
      <point x="574" y="-230"/>
      <point x="519" y="-175"/>
      <point x="519" y="-130" type="qcurve" smooth="yes"/>
      <point x="519" y="-65"/>
      <point x="612" y="8"/>
      <point x="664" y="18" type="qcurve"/>
      <point x="664" y="3" type="line"/>
      <point x="652" y="3" type="line"/>
      <point x="652" y="172" type="line"/>
      <point x="656" y="161" type="line"/>
      <point x="639" y="123"/>
      <point x="594" y="69"/>
    </contour>
    <contour>
      <point x="63" y="257" type="qcurve"/>
      <point x="63" y="149"/>
      <point x="222" y="12"/>
      <point x="366" y="12" type="qcurve"/>
      <point x="490" y="12"/>
      <point x="653" y="151"/>
      <point x="653" y="259" type="qcurve"/>
      <point x="653" y="365"/>
      <point x="490" y="508"/>
      <point x="364" y="508" type="qcurve"/>
      <point x="231" y="508"/>
      <point x="63" y="364"/>
    </contour>
  </outline>
</glyph>
<glyph name="eogonek" format="2">
  <advance width="705"/>
  <unicode hex="0119"/>
  <note>
eogonek
</note>
  <outline>
    <contour>
      <point x="516" y="16" type="qcurve"/>
      <point x="516" y="7" type="line"/>
      <point x="497" y="1"/>
      <point x="425" y="-10"/>
      <point x="377" y="-10" type="qcurve"/>
      <point x="228" y="-10"/>
      <point x="40" y="145"/>
      <point x="40" y="263" type="qcurve"/>
      <point x="40" y="387"/>
      <point x="234" y="530"/>
      <point x="365" y="530" type="qcurve"/>
      <point x="493" y="530"/>
      <point x="670" y="404"/>
      <point x="670" y="291" type="qcurve"/>
      <point x="669" y="255" type="line"/>
      <point x="52" y="255" type="line"/>
      <point x="52" y="277" type="line"/>
      <point x="658" y="277" type="line"/>
      <point x="648" y="270" type="line"/>
      <point x="648" y="296" type="line" smooth="yes"/>
      <point x="648" y="394"/>
      <point x="479" y="508"/>
      <point x="368" y="508" type="qcurve"/>
      <point x="242" y="508"/>
      <point x="62" y="376"/>
      <point x="62" y="274" type="qcurve"/>
      <point x="62" y="158"/>
      <point x="241" y="12"/>
      <point x="387" y="12" type="qcurve"/>
      <point x="481" y="12"/>
      <point x="603" y="70"/>
      <point x="632" y="88" type="qcurve"/>
      <point x="644" y="65" type="line"/>
      <point x="617" y="51"/>
      <point x="580" y="31"/>
      <point x="553" y="17" type="qcurve" smooth="yes"/>
      <point x="516" y="-3"/>
      <point x="423" y="-82"/>
      <point x="423" y="-131" type="qcurve"/>
      <point x="423" y="-167"/>
      <point x="468" y="-208"/>
      <point x="501" y="-208" type="qcurve" smooth="yes"/>
      <point x="525" y="-208"/>
      <point x="561" y="-182"/>
      <point x="571" y="-163" type="qcurve"/>
      <point x="586" y="-176" type="line"/>
      <point x="579" y="-195"/>
      <point x="532" y="-230"/>
      <point x="501" y="-230" type="qcurve"/>
      <point x="460" y="-230"/>
      <point x="401" y="-178"/>
      <point x="401" y="-131" type="qcurve" smooth="yes"/>
      <point x="401" y="-74"/>
      <point x="488" y="3"/>
    </contour>
  </outline>
</glyph>
<glyph name="iogonek" format="2">
  <advance width="140"/>
  <unicode hex="012F"/>
  <note>
iogonek
</note>
  <outline>
    <contour>
      <point x="71" y="19" type="qcurve"/>
      <point x="63" y="-3" type="line"/>
      <point x="63" y="525" type="line"/>
      <point x="85" y="525" type="line"/>
      <point x="85" y="0" type="line"/>
      <point x="62" y="-25"/>
      <point x="0" y="-91"/>
      <point x="0" y="-131" type="qcurve"/>
      <point x="0" y="-158"/>
      <point x="32" y="-187"/>
      <point x="59" y="-187" type="qcurve" smooth="yes"/>
      <point x="87" y="-187"/>
      <point x="115" y="-158"/>
      <point x="122" y="-143" type="qcurve"/>
      <point x="138" y="-154" type="line"/>
      <point x="129" y="-176"/>
      <point x="93" y="-209"/>
      <point x="58" y="-209" type="qcurve"/>
      <point x="25" y="-209"/>
      <point x="-23" y="-170"/>
      <point x="-23" y="-131" type="qcurve"/>
      <point x="-23" y="-90"/>
      <point x="40" y="-13"/>
    </contour>
    <contour>
      <point x="100" y="712" type="qcurve" smooth="yes"/>
      <point x="100" y="703"/>
      <point x="89" y="683"/>
      <point x="72" y="683" type="qcurve" smooth="yes"/>
      <point x="56" y="683"/>
      <point x="44" y="701"/>
      <point x="44" y="712" type="qcurve" smooth="yes"/>
      <point x="44" y="720"/>
      <point x="55" y="741"/>
      <point x="72" y="741" type="qcurve" smooth="yes"/>
      <point x="87" y="741"/>
      <point x="100" y="723"/>
    </contour>
  </outline>
</glyph>
<glyph name="idotless" format="2">
  <advance width="162"/>
  <unicode hex="0131"/>
  <note>
dotlessi
</note>
  <anchor x="82" y="0" name="bottom"/>
  <anchor x="133" y="0" name="ogonek"/>
  <anchor x="81" y="525" name="top"/>
  <outline>
    <contour>
      <point x="92" y="525" type="line"/>
      <point x="92" y="0" type="line"/>
      <point x="70" y="0" type="line"/>
      <point x="70" y="525" type="line"/>
    </contour>
  </outline>
</glyph>
<glyph name="kgreenlandic" format="2">
  <advance width="608"/>
  <unicode hex="0138"/>
  <outline>
    <contour>
      <point x="99" y="0" type="line"/>
      <point x="77" y="0" type="line"/>
      <point x="77" y="525" type="line"/>
      <point x="99" y="525" type="line"/>
    </contour>
    <contour>
      <point x="530" y="525" type="line"/>
      <point x="565" y="525" type="line"/>
      <point x="289" y="312" type="line"/>
      <point x="88" y="157" type="line"/>
      <point x="88" y="184" type="line"/>
    </contour>
    <contour>
      <point x="599" y="0" type="line"/>
      <point x="567" y="0" type="line"/>
      <point x="273" y="311" type="line"/>
      <point x="291" y="326" type="line"/>
    </contour>
  </outline>
</glyph>
<glyph name="Lslash" format="2">
  <advance width="716"/>
  <unicode hex="0141"/>
  <note>
Lslash
</note>
  <anchor x="468" y="0" name="bottom"/>
  <anchor x="468" y="350" name="center"/>
  <anchor x="275" y="700" name="top"/>
  <anchor x="877" y="700" name="topright"/>
  <outline>
    <contour>
      <point x="174" y="22" type="line"/>
      <point x="696" y="22" type="line"/>
      <point x="696" y="0" type="line"/>
      <point x="185" y="0" type="line"/>
      <point x="185" y="700" type="line"/>
      <point x="207" y="700" type="line"/>
      <point x="207" y="1" type="line"/>
    </contour>
    <contour>
      <point x="-4" y="267" type="line"/>
      <point x="-9" y="288" type="line"/>
      <point x="526" y="496" type="line"/>
      <point x="531" y="475" type="line"/>
    </contour>
  </outline>
</glyph>
<glyph name="lslash" format="2">
  <advance width="433"/>
  <unicode hex="0142"/>
  <note>
lslash
</note>
  <anchor x="368" y="0" name="bottom"/>
  <anchor x="368" y="370" name="center"/>
  <anchor x="368" y="740" name="top"/>
  <anchor x="609" y="740" name="topright"/>
  <outline>
    <contour>
      <point x="223" y="0" type="line"/>
      <point x="201" y="0" type="line"/>
      <point x="201" y="740" type="line"/>
      <point x="223" y="740" type="line"/>
    </contour>
    <contour>
      <point x="17" y="287" type="line"/>
      <point x="10" y="307" type="line"/>
      <point x="417" y="420" type="line"/>
      <point x="423" y="399" type="line"/>
    </contour>
  </outline>
</glyph>
<glyph name="Eng" format="2">
  <advance width="890"/>
  <unicode hex="014A"/>
  <note>
Eng
</note>
  <outline>
    <contour>
      <point x="761" y="19" type="line"/>
      <point x="761" y="0" type="line"/>
      <point x="125" y="686" type="line"/>
      <point x="130" y="686" type="line"/>
      <point x="132" y="662"/>
      <point x="131" y="630"/>
      <point x="132" y="586" type="qcurve" smooth="yes"/>
      <point x="131" y="563"/>
      <point x="132" y="501"/>
      <point x="132" y="470" type="qcurve"/>
      <point x="132" y="0" type="line"/>
      <point x="110" y="0" type="line"/>
      <point x="110" y="700" type="line"/>
      <point x="142" y="700" type="line"/>
      <point x="765" y="26" type="line"/>
      <point x="761" y="22" type="line"/>
      <point x="759" y="79"/>
      <point x="759" y="205"/>
      <point x="758" y="241" type="qcurve"/>
      <point x="758" y="700" type="line"/>
      <point x="780" y="700" type="line"/>
      <point x="780" y="103" type="line"/>
      <point x="780" y="29" type="line" smooth="yes"/>
      <point x="780" y="-72"/>
      <point x="676" y="-194"/>
      <point x="569" y="-194" type="qcurve"/>
      <point x="564" y="-172" type="line"/>
      <point x="671" y="-172"/>
      <point x="761" y="-63"/>
      <point x="761" y="15" type="qcurve"/>
    </contour>
  </outline>
</glyph>
<glyph name="eng" format="2">
  <advance width="661"/>
  <unicode hex="014B"/>
  <note>
eng
</note>
  <outline>
    <contour>
      <point x="338" y="530" type="qcurve"/>
      <point x="460" y="530"/>
      <point x="593" y="408"/>
      <point x="593" y="318" type="qcurve"/>
      <point x="593" y="-61" type="line" smooth="yes"/>
      <point x="593" y="-128"/>
      <point x="483" y="-194"/>
      <point x="397" y="-194" type="qcurve"/>
      <point x="391" y="-172" type="line"/>
      <point x="475" y="-172"/>
      <point x="572" y="-118"/>
      <point x="571" y="-56" type="qcurve"/>
      <point x="571" y="311" type="line"/>
      <point x="571" y="403"/>
      <point x="442" y="508"/>
      <point x="343" y="508" type="qcurve"/>
      <point x="234" y="508"/>
      <point x="93" y="381"/>
      <point x="92" y="343" type="qcurve"/>
      <point x="92" y="0" type="line"/>
      <point x="70" y="0" type="line"/>
      <point x="70" y="525" type="line"/>
      <point x="90" y="525" type="line"/>
      <point x="92" y="393" type="line"/>
      <point x="120" y="445"/>
      <point x="252" y="530"/>
    </contour>
  </outline>
</glyph>
<glyph name="OE" format="2">
  <advance width="1282"/>
  <unicode hex="0152"/>
  <note>
OE
</note>
  <outline>
    <contour>
      <point x="55" y="350" type="qcurve" smooth="yes"/>
      <point x="55" y="503"/>
      <point x="273" y="700"/>
      <point x="441" y="700" type="qcurve"/>
      <point x="1217" y="700" type="line"/>
      <point x="1217" y="678" type="line"/>
      <point x="700" y="678" type="line"/>
      <point x="708" y="678" type="line"/>
      <point x="708" y="367" type="line"/>
      <point x="696" y="373" type="line"/>
      <point x="1159" y="373" type="line"/>
      <point x="1159" y="351" type="line"/>
      <point x="695" y="351" type="line"/>
      <point x="708" y="357" type="line"/>
      <point x="708" y="13" type="line"/>
      <point x="701" y="22" type="line"/>
      <point x="1211" y="22" type="line"/>
      <point x="1211" y="0" type="line"/>
      <point x="450" y="0" type="line" smooth="yes"/>
      <point x="278" y="0"/>
      <point x="55" y="197"/>
    </contour>
    <contour>
      <point x="694" y="22" type="line"/>
      <point x="686" y="13" type="line"/>
      <point x="686" y="688" type="line"/>
      <point x="695" y="678" type="line"/>
      <point x="441" y="678" type="line" smooth="yes"/>
      <point x="283" y="678"/>
      <point x="78" y="493"/>
      <point x="78" y="350" type="qcurve" smooth="yes"/>
      <point x="78" y="207"/>
      <point x="288" y="22"/>
      <point x="450" y="22" type="qcurve" smooth="yes"/>
    </contour>
  </outline>
</glyph>
<glyph name="Uogonek" format="2">
  <advance width="884"/>
  <unicode hex="0172"/>
  <outline>
    <contour>
      <point x="438" y="-6" type="qcurve"/>
      <point x="288" y="-6"/>
      <point x="111" y="187"/>
      <point x="110" y="337" type="qcurve"/>
      <point x="110" y="700" type="line"/>
      <point x="132" y="700" type="line"/>
      <point x="132" y="339" type="line"/>
      <point x="132" y="196"/>
      <point x="302" y="17"/>
      <point x="438" y="17" type="qcurve"/>
      <point x="578" y="17"/>
      <point x="752" y="196"/>
      <point x="752" y="339" type="qcurve"/>
      <point x="752" y="700" type="line"/>
      <point x="774" y="700" type="line"/>
      <point x="774" y="335" type="line"/>
      <point x="774" y="186"/>
      <point x="618" y="23"/>
      <point x="524" y="3" type="qcurve" smooth="yes"/>
      <point x="476" y="-7"/>
      <point x="413" y="-82"/>
      <point x="413" y="-131" type="qcurve" smooth="yes"/>
      <point x="413" y="-164"/>
      <point x="457" y="-209"/>
      <point x="491" y="-209" type="qcurve" smooth="yes"/>
      <point x="519" y="-209"/>
      <point x="557" y="-182"/>
      <point x="566" y="-164" type="qcurve"/>
      <point x="581" y="-177" type="line"/>
      <point x="571" y="-197"/>
      <point x="523" y="-231"/>
      <point x="488" y="-231" type="qcurve"/>
      <point x="449" y="-231"/>
      <point x="391" y="-175"/>
      <point x="391" y="-131" type="qcurve" smooth="yes"/>
      <point x="391" y="-87"/>
      <point x="432" y="-21"/>
      <point x="487" y="11" type="qcurve"/>
      <point x="488" y="-3" type="line"/>
      <point x="463" y="-5"/>
      <point x="444" y="-6"/>
    </contour>
  </outline>
</glyph>
<glyph name="oogonek" format="2">
  <advance width="775"/>
  <unicode hex="01EB"/>
  <outline>
    <contour>
      <point x="62" y="263" type="qcurve"/>
      <point x="60" y="152"/>
      <point x="249" y="12"/>
      <point x="388" y="12" type="qcurve"/>
      <point x="525" y="12"/>
      <point x="712" y="151"/>
      <point x="713" y="263" type="qcurve"/>
      <point x="714" y="371"/>
      <point x="527" y="508"/>
      <point x="388" y="508" type="qcurve"/>
      <point x="245" y="508"/>
      <point x="63" y="372"/>
    </contour>
    <contour>
      <point x="388" y="-10" type="qcurve"/>
      <point x="231" y="-10"/>
      <point x="40" y="143"/>
      <point x="40" y="263" type="qcurve"/>
      <point x="40" y="381"/>
      <point x="231" y="530"/>
      <point x="388" y="530" type="qcurve"/>
      <point x="541" y="530"/>
      <point x="735" y="381"/>
      <point x="735" y="263" type="qcurve"/>
      <point x="735" y="168"/>
      <point x="595" y="24"/>
      <point x="477" y="2" type="qcurve" smooth="yes"/>
      <point x="454" y="-2"/>
      <point x="364" y="-71"/>
      <point x="364" y="-130" type="qcurve" smooth="yes"/>
      <point x="364" y="-163"/>
      <point x="405" y="-208"/>
      <point x="437" y="-208" type="qcurve" smooth="yes"/>
      <point x="463" y="-208"/>
      <point x="498" y="-181"/>
      <point x="507" y="-163" type="qcurve"/>
      <point x="522" y="-176" type="line"/>
      <point x="512" y="-196"/>
      <point x="469" y="-230"/>
      <point x="437" y="-230" type="qcurve" smooth="yes"/>
      <point x="397" y="-230"/>
      <point x="342" y="-175"/>
      <point x="342" y="-130" type="qcurve" smooth="yes"/>
      <point x="342" y="-87"/>
      <point x="382" y="-26"/>
      <point x="432" y="6" type="qcurve"/>
      <point x="447" y="-5" type="line"/>
      <point x="410" y="-10"/>
      <point x="395" y="-10"/>
    </contour>
  </outline>
</glyph>
<glyph name="jdotless" format="2">
  <advance width="211"/>
  <unicode hex="0237"/>
  <note>
dotlessj
</note>
  <outline>
    <contour>
      <point x="168" y="525" type="line"/>
      <point x="168" y="70" type="line" smooth="yes"/>
      <point x="168" y="-58"/>
      <point x="50" y="-190"/>
      <point x="-38" y="-194" type="qcurve"/>
      <point x="-42" y="-172" type="line"/>
      <point x="52" y="-161"/>
      <point x="146" y="-33"/>
      <point x="146" y="74" type="qcurve"/>
      <point x="146" y="525" type="line"/>
    </contour>
  </outline>
</glyph>
<glyph name="nhookleft" format="2">
  <advance width="751"/>
  <unicode hex="0272"/>
  <anchor x="584" y="0" name="bottom"/>
  <anchor x="604" y="525" name="top"/>
  <outline>
    <contour>
      <point x="428" y="530" type="qcurve"/>
      <point x="550" y="530"/>
      <point x="683" y="408"/>
      <point x="683" y="318" type="qcurve"/>
      <point x="683" y="0" type="line"/>
      <point x="661" y="0" type="line"/>
      <point x="661" y="311" type="line"/>
      <point x="661" y="403"/>
      <point x="532" y="508"/>
      <point x="433" y="508" type="qcurve"/>
      <point x="324" y="508"/>
      <point x="183" y="381"/>
      <point x="182" y="343" type="qcurve"/>
      <point x="182" y="0" type="line"/>
      <point x="175" y="0"/>
      <point x="168" y="0"/>
      <point x="160" y="0" type="qcurve"/>
      <point x="160" y="525" type="line"/>
      <point x="180" y="525" type="line"/>
      <point x="182" y="364" type="line"/>
      <point x="168" y="360" type="line"/>
      <point x="185" y="420"/>
      <point x="328" y="530"/>
    </contour>
    <contour>
      <point x="160" y="5" type="line"/>
      <point x="182" y="9" type="line"/>
      <point x="182" y="-61" type="line" smooth="yes"/>
      <point x="182" y="-128"/>
      <point x="60" y="-194"/>
      <point x="-34" y="-194" type="qcurve"/>
      <point x="-42" y="-172" type="line"/>
      <point x="51" y="-172"/>
      <point x="160" y="-117"/>
      <point x="160" y="-57" type="qcurve"/>
    </contour>
  </outline>
</glyph>
<glyph name="verticallinemod" format="2">
  <advance width="229"/>
  <unicode hex="02C8"/>
  <outline>
    <contour>
      <point x="126" y="712" type="line"/>
      <point x="126" y="368" type="line"/>
      <point x="104" y="368" type="line"/>
      <point x="104" y="712" type="line"/>
    </contour>
  </outline>
</glyph>
<glyph name="firsttonechinese" format="2">
  <advance width="464"/>
  <unicode hex="02C9"/>
  <outline>
    <contour>
      <point x="387" y="634" type="line"/>
      <point x="77" y="634" type="line"/>
      <point x="77" y="656" type="line"/>
      <point x="387" y="656" type="line"/>
    </contour>
  </outline>
</glyph>
<glyph name="tildecomb" format="2">
  <advance width="332"/>
  <unicode hex="0303"/>
  <outline>
    <contour>
      <point x="60" y="647" type="qcurve"/>
      <point x="40" y="650" type="line"/>
      <point x="40" y="680"/>
      <point x="78" y="722"/>
      <point x="102" y="722" type="qcurve"/>
      <point x="123" y="722"/>
      <point x="161" y="699"/>
      <point x="179" y="686" type="qcurve" smooth="yes"/>
      <point x="186" y="681"/>
      <point x="218" y="661"/>
      <point x="232" y="661" type="qcurve"/>
      <point x="247" y="661"/>
      <point x="271" y="686"/>
      <point x="272" y="716" type="qcurve"/>
      <point x="292" y="713" type="line"/>
      <point x="292" y="680"/>
      <point x="255" y="641"/>
      <point x="233" y="641" type="qcurve"/>
      <point x="210" y="641"/>
      <point x="172" y="665"/>
      <point x="155" y="677" type="qcurve" smooth="yes"/>
      <point x="147" y="682"/>
      <point x="118" y="702"/>
      <point x="102" y="702" type="qcurve"/>
      <point x="87" y="702"/>
      <point x="60" y="673"/>
    </contour>
  </outline>
</glyph>
<glyph name="dotaccentcomb" format="2">
  <advance width="232"/>
  <unicode hex="0307"/>
  <outline>
    <contour>
      <point x="144" y="684" type="qcurve" smooth="yes"/>
      <point x="144" y="671"/>
      <point x="130" y="655"/>
      <point x="116" y="655" type="qcurve" smooth="yes"/>
      <point x="102" y="655"/>
      <point x="88" y="671"/>
      <point x="88" y="684" type="qcurve" smooth="yes"/>
      <point x="88" y="696"/>
      <point x="102" y="713"/>
      <point x="116" y="713" type="qcurve" smooth="yes"/>
      <point x="129" y="713"/>
      <point x="144" y="697"/>
    </contour>
  </outline>
</glyph>
<glyph name="hungarumlautcomb" format="2">
  <advance width="412"/>
  <unicode hex="030B"/>
  <anchor x="212" y="525" name="_top"/>
  <anchor x="254" y="749" name="top"/>
  <outline>
    <contour>
      <point x="211" y="677" type="line"/>
      <point x="67" y="573" type="line"/>
      <point x="57" y="588" type="line"/>
      <point x="197" y="698" type="line"/>
    </contour>
    <contour>
      <point x="331" y="677" type="line"/>
      <point x="187" y="573" type="line"/>
      <point x="177" y="588" type="line"/>
      <point x="317" y="698" type="line"/>
    </contour>
  </outline>
</glyph>
<glyph name="caroncomb" format="2">
  <advance width="362"/>
  <unicode hex="030C"/>
  <anchor x="198" y="525" name="_top"/>
  <anchor x="198" y="773" name="top"/>
  <outline>
    <contour>
      <point x="189" y="649" type="line"/>
      <point x="174" y="649" type="line"/>
      <point x="290" y="741" type="line"/>
      <point x="302" y="728" type="line"/>
      <point x="195" y="636" type="line"/>
      <point x="167" y="636" type="line"/>
      <point x="60" y="728" type="line"/>
      <point x="72" y="741" type="line"/>
    </contour>
  </outline>
</glyph>
<glyph name="strokeshortcomb" format="2">
  <advance width="140"/>
  <unicode hex="0335"/>
  <anchor x="324" y="296" name="_center"/>
  <outline>
    <contour>
      <point x="458" y="298" type="line"/>
      <point x="50" y="298" type="line"/>
      <point x="50" y="315" type="line"/>
      <point x="458" y="315" type="line"/>
    </contour>
  </outline>
</glyph>
<glyph name="sad-ar" format="2">
  <advance width="1985"/>
  <unicode hex="0635"/>
  <outline>
    <contour>
      <point x="1093" y="0" type="qcurve"/>
      <point x="1093" y="102" type="line"/>
      <point x="1820" y="102" type="line"/>
      <point x="1821" y="183"/>
      <point x="1679" y="334"/>
      <point x="1598" y="334" type="qcurve" smooth="yes"/>
      <point x="1478" y="334"/>
      <point x="1224" y="169"/>
      <point x="1127" y="12" type="qcurve"/>
      <point x="1127" y="12"/>
      <point x="1057" y="94"/>
      <point x="1057" y="94" type="qcurve"/>
      <point x="1147" y="223"/>
      <point x="1501" y="438"/>
      <point x="1610" y="438" type="qcurve" smooth="yes"/>
      <point x="1785" y="438"/>
      <point x="1943" y="182"/>
      <point x="1903" y="0" type="qcurve"/>
      <point x="1903" y="0"/>
      <point x="1093" y="0"/>
    </contour>
    <component base="noonghunna-ar.fina"/>
  </outline>
</glyph>
<glyph name="tah-ar" format="2">
  <advance width="1107"/>
  <unicode hex="0637"/>
  <outline>
    <contour>
      <point x="30" y="0" type="qcurve"/>
      <point x="30" y="102" type="line"/>
      <point x="941" y="102" type="line"/>
      <point x="942" y="183"/>
      <point x="814" y="334"/>
      <point x="738" y="334" type="qcurve" smooth="yes"/>
      <point x="619" y="334"/>
      <point x="373" y="158"/>
      <point x="248" y="12" type="qcurve"/>
      <point x="248" y="12"/>
      <point x="242" y="148"/>
      <point x="242" y="148" type="qcurve"/>
      <point x="317" y="236"/>
      <point x="642" y="438"/>
      <point x="750" y="438" type="qcurve" smooth="yes"/>
      <point x="918" y="438"/>
      <point x="1064" y="182"/>
      <point x="1024" y="0" type="qcurve"/>
      <point x="1024" y="0"/>
      <point x="30" y="0"/>
    </contour>
    <contour>
      <point x="226" y="0" type="line"/>
      <point x="226" y="738" type="line"/>
      <point x="330" y="740" type="line"/>
      <point x="330" y="0" type="line"/>
    </contour>
  </outline>
</glyph>
<glyph name="kaf-ar" format="2">
  <advance width="1236"/>
  <unicode hex="0643"/>
  <outline>
    <contour>
      <point x="1052" y="740" type="line"/>
      <point x="1156" y="740" type="line"/>
      <point x="1156" y="0" type="line"/>
      <point x="1052" y="0" type="line"/>
    </contour>
    <contour>
      <point x="1085" y="102" type="qcurve"/>
      <point x="324" y="102" type="line" smooth="yes"/>
      <point x="262" y="102"/>
      <point x="134" y="171"/>
      <point x="134" y="226" type="qcurve" smooth="yes"/>
      <point x="134" y="248"/>
      <point x="156" y="338"/>
      <point x="174" y="377" type="qcurve"/>
      <point x="174" y="377"/>
      <point x="94" y="413"/>
      <point x="94" y="413" type="qcurve"/>
      <point x="58" y="352"/>
      <point x="30" y="245"/>
      <point x="30" y="202" type="qcurve" smooth="yes"/>
      <point x="30" y="132"/>
      <point x="201" y="0"/>
      <point x="292" y="0" type="qcurve"/>
      <point x="292" y="0"/>
      <point x="1079" y="0"/>
      <point x="1079" y="0" type="qcurve"/>
      <point x="1079" y="0"/>
      <point x="1085" y="102"/>
    </contour>
    <component base="hamzaabove-ar" xScale="1.2" yScale="1.2" xOffset="410" yOffset="-461"/>
  </outline>
</glyph>
<glyph name="lam-ar" format="2">
  <advance width="902"/>
  <unicode hex="0644"/>
  <outline>
    <contour>
      <point x="822" y="124" type="line" smooth="yes"/>
      <point x="822" y="-2"/>
      <point x="550" y="-230"/>
      <point x="393" y="-230" type="qcurve" smooth="yes"/>
      <point x="224" y="-230"/>
      <point x="30" y="-81"/>
      <point x="30" y="23" type="qcurve" smooth="yes"/>
      <point x="30" y="67"/>
      <point x="56" y="176"/>
      <point x="89" y="250" type="qcurve"/>
      <point x="89" y="250"/>
      <point x="33" y="228"/>
      <point x="33" y="228" type="qcurve"/>
      <point x="210" y="169" type="line"/>
      <point x="177" y="223" type="line"/>
      <point x="159" y="176"/>
      <point x="131" y="73"/>
      <point x="131" y="46" type="qcurve" smooth="yes"/>
      <point x="131" y="-41"/>
      <point x="292" y="-128"/>
      <point x="406" y="-128" type="qcurve" smooth="yes"/>
      <point x="544" y="-128"/>
      <point x="727" y="-15"/>
      <point x="727" y="97" type="qcurve"/>
      <point x="727" y="97"/>
      <point x="727" y="740"/>
      <point x="727" y="740" type="qcurve"/>
      <point x="822" y="740" type="line"/>
    </contour>
  </outline>
</glyph>
<glyph name="hamzaabove-ar" format="2">
  <advance width="60"/>
  <unicode hex="0654"/>
  <outline>
    <contour>
      <point x="275" y="692" type="qcurve"/>
      <point x="275" y="635" type="line"/>
      <point x="20" y="635" type="line"/>
      <point x="20" y="692" type="line"/>
      <point x="69" y="692" type="line"/>
      <point x="64" y="699"/>
      <point x="55" y="727"/>
      <point x="55" y="736" type="qcurve" smooth="yes"/>
      <point x="55" y="775"/>
      <point x="115" y="825"/>
      <point x="172" y="825" type="qcurve" smooth="yes"/>
      <point x="194" y="825"/>
      <point x="240" y="816"/>
      <point x="252" y="810" type="qcurve"/>
      <point x="252" y="810"/>
      <point x="236" y="759"/>
      <point x="236" y="759" type="qcurve"/>
      <point x="228" y="761"/>
      <point x="191" y="768"/>
      <point x="176" y="768" type="qcurve" smooth="yes"/>
      <point x="139" y="768"/>
      <point x="113" y="748"/>
      <point x="113" y="733" type="qcurve" smooth="yes"/>
      <point x="113" y="719"/>
      <point x="146" y="692"/>
      <point x="200" y="692" type="qcurve"/>
      <point x="200" y="692"/>
      <point x="275" y="692"/>
    </contour>
  </outline>
</glyph>
<glyph name="hamzabelow-ar" format="2">
  <advance width="60"/>
  <unicode hex="0655"/>
  <outline>
    <contour>
      <point x="275" y="-193" type="qcurve"/>
      <point x="275" y="-250" type="line"/>
      <point x="20" y="-250" type="line"/>
      <point x="20" y="-193" type="line"/>
      <point x="69" y="-193" type="line"/>
      <point x="64" y="-186"/>
      <point x="55" y="-158"/>
      <point x="55" y="-149" type="qcurve" smooth="yes"/>
      <point x="55" y="-110"/>
      <point x="115" y="-60"/>
      <point x="172" y="-60" type="qcurve" smooth="yes"/>
      <point x="194" y="-60"/>
      <point x="240" y="-69"/>
      <point x="252" y="-75" type="qcurve"/>
      <point x="252" y="-75"/>
      <point x="236" y="-126"/>
      <point x="236" y="-126" type="qcurve"/>
      <point x="228" y="-124"/>
      <point x="191" y="-117"/>
      <point x="176" y="-117" type="qcurve" smooth="yes"/>
      <point x="139" y="-117"/>
      <point x="113" y="-137"/>
      <point x="113" y="-152" type="qcurve" smooth="yes"/>
      <point x="113" y="-166"/>
      <point x="146" y="-193"/>
      <point x="200" y="-193" type="qcurve"/>
      <point x="200" y="-193"/>
      <point x="275" y="-193"/>
    </contour>
  </outline>
</glyph>
<glyph name="noonghunna-ar" format="2">
  <advance width="892"/>
  <unicode hex="06BA"/>
  <outline>
    <contour>
      <point x="131" y="43" type="qcurve" smooth="yes"/>
      <point x="131" y="-46"/>
      <point x="281" y="-128"/>
      <point x="414" y="-128" type="qcurve" smooth="yes"/>
      <point x="546" y="-128"/>
      <point x="727" y="-44"/>
      <point x="727" y="31" type="qcurve" smooth="yes"/>
      <point x="727" y="64"/>
      <point x="691" y="171"/>
      <point x="640" y="246" type="qcurve"/>
      <point x="720" y="342" type="line"/>
      <point x="789" y="242"/>
      <point x="822" y="92"/>
      <point x="822" y="50" type="qcurve" smooth="yes"/>
      <point x="822" y="-78"/>
      <point x="595" y="-230"/>
      <point x="401" y="-230" type="qcurve" smooth="yes"/>
      <point x="213" y="-230"/>
      <point x="30" y="-84"/>
      <point x="30" y="28" type="qcurve" smooth="yes"/>
      <point x="30" y="58"/>
      <point x="53" y="176"/>
      <point x="89" y="250" type="qcurve"/>
      <point x="33" y="228" type="line"/>
      <point x="210" y="169" type="line"/>
      <point x="177" y="223" type="line"/>
      <point x="151" y="169"/>
      <point x="131" y="74"/>
    </contour>
  </outline>
</glyph>
<glyph name="Germandbls" format="2">
  <advance width="895"/>
  <unicode hex="1E9E"/>
  <outline>
    <contour>
      <point x="759" y="609" type="line"/>
      <point x="611" y="598"/>
      <point x="479" y="540"/>
      <point x="479" y="486" type="qcurve" smooth="yes"/>
      <point x="479" y="448"/>
      <point x="543" y="400"/>
      <point x="629" y="373" type="qcurve" smooth="yes"/>
      <point x="681" y="357"/>
      <point x="757" y="320"/>
      <point x="781" y="299" type="qcurve" smooth="yes"/>
      <point x="808" y="276"/>
      <point x="833" y="221"/>
      <point x="833" y="188" type="qcurve" smooth="yes"/>
      <point x="833" y="93"/>
      <point x="703" y="-10"/>
      <point x="583" y="-10" type="qcurve" smooth="yes"/>
      <point x="516" y="-10"/>
      <point x="382" y="39"/>
      <point x="324" y="84" type="qcurve"/>
      <point x="338" y="101" type="line"/>
      <point x="394" y="58"/>
      <point x="522" y="12"/>
      <point x="585" y="12" type="qcurve" smooth="yes"/>
      <point x="694" y="12"/>
      <point x="811" y="102"/>
      <point x="811" y="185" type="qcurve" smooth="yes"/>
      <point x="811" y="215"/>
      <point x="787" y="265"/>
      <point x="761" y="286" type="qcurve" smooth="yes"/>
      <point x="738" y="305"/>
      <point x="668" y="339"/>
      <point x="621" y="354" type="qcurve" smooth="yes"/>
      <point x="528" y="383"/>
      <point x="458" y="439"/>
      <point x="458" y="484" type="qcurve" smooth="yes"/>
      <point x="458" y="550"/>
      <point x="595" y="617"/>
      <point x="747" y="626" type="qcurve"/>
      <point x="747" y="620" type="line"/>
      <point x="684" y="655"/>
      <point x="561" y="688"/>
      <point x="485" y="688" type="qcurve"/>
      <point x="297" y="686"/>
      <point x="128" y="508"/>
      <point x="128" y="311" type="qcurve"/>
      <point x="128" y="0" type="line"/>
      <point x="106" y="0" type="line"/>
      <point x="106" y="309" type="line" smooth="yes"/>
      <point x="106" y="520"/>
      <point x="290" y="710"/>
      <point x="496" y="710" type="qcurve" smooth="yes"/>
      <point x="563" y="710"/>
      <point x="685" y="676"/>
      <point x="755" y="638" type="qcurve"/>
    </contour>
  </outline>
</glyph>
<glyph name="endash" format="2">
  <advance width="574"/>
  <unicode hex="2013"/>
  <note>
endash
</note>
  <outline>
    <contour>
      <point x="521" y="283" type="line"/>
      <point x="53" y="283" type="line"/>
      <point x="53" y="305" type="line"/>
      <point x="521" y="305" type="line"/>
    </contour>
  </outline>
</glyph>
<glyph name="emdash" format="2">
  <advance width="938"/>
  <unicode hex="2014"/>
  <note>
emdash
</note>
  <outline>
    <contour>
      <point x="885" y="284" type="line"/>
      <point x="53" y="284" type="line"/>
      <point x="53" y="306" type="line"/>
      <point x="885" y="306" type="line"/>
    </contour>
  </outline>
</glyph>
<glyph name="bullet" format="2">
  <advance width="407"/>
  <unicode hex="2022"/>
  <note>
bullet
</note>
  <outline>
    <contour>
      <point x="205" y="243" type="qcurve" smooth="yes"/>
      <point x="163" y="242"/>
      <point x="102" y="300"/>
      <point x="102" y="342" type="qcurve" smooth="yes"/>
      <point x="102" y="386"/>
      <point x="160" y="446"/>
      <point x="202" y="446" type="qcurve" smooth="yes"/>
      <point x="243" y="446"/>
      <point x="305" y="388"/>
      <point x="305" y="345" type="qcurve" smooth="yes"/>
      <point x="305" y="303"/>
      <point x="247" y="243"/>
    </contour>
  </outline>
</glyph>
<glyph name="perthousand" format="2">
  <advance width="1525"/>
  <unicode hex="2030"/>
  <note>
perthousand
</note>
  <outline>
    <contour>
      <point x="410" y="488" type="qcurve"/>
      <point x="410" y="398"/>
      <point x="307" y="269"/>
      <point x="226" y="269" type="qcurve"/>
      <point x="142" y="269"/>
      <point x="43" y="397"/>
      <point x="43" y="488" type="qcurve"/>
      <point x="43" y="580"/>
      <point x="141" y="709"/>
      <point x="226" y="709" type="qcurve"/>
      <point x="309" y="709"/>
      <point x="410" y="580"/>
    </contour>
    <contour>
      <point x="65" y="488" type="qcurve"/>
      <point x="65" y="402"/>
      <point x="154" y="290"/>
      <point x="226" y="290" type="qcurve"/>
      <point x="299" y="290"/>
      <point x="388" y="405"/>
      <point x="388" y="488" type="qcurve"/>
      <point x="388" y="574"/>
      <point x="300" y="688"/>
      <point x="226" y="688" type="qcurve"/>
      <point x="152" y="688"/>
      <point x="65" y="572"/>
    </contour>
    <contour>
      <point x="1014" y="203" type="qcurve"/>
      <point x="1014" y="113"/>
      <point x="911" y="-16"/>
      <point x="830" y="-16" type="qcurve"/>
      <point x="746" y="-16"/>
      <point x="647" y="112"/>
      <point x="647" y="203" type="qcurve"/>
      <point x="647" y="295"/>
      <point x="745" y="424"/>
      <point x="830" y="424" type="qcurve"/>
      <point x="913" y="424"/>
      <point x="1014" y="295"/>
    </contour>
    <contour>
      <point x="669" y="203" type="qcurve"/>
      <point x="669" y="117"/>
      <point x="758" y="5"/>
      <point x="830" y="5" type="qcurve"/>
      <point x="903" y="5"/>
      <point x="992" y="120"/>
      <point x="992" y="203" type="qcurve"/>
      <point x="992" y="289"/>
      <point x="904" y="403"/>
      <point x="830" y="403" type="qcurve"/>
      <point x="756" y="403"/>
      <point x="669" y="287"/>
    </contour>
    <contour>
      <point x="1475" y="203" type="qcurve"/>
      <point x="1475" y="113"/>
      <point x="1372" y="-16"/>
      <point x="1291" y="-16" type="qcurve"/>
      <point x="1207" y="-16"/>
      <point x="1108" y="112"/>
      <point x="1108" y="203" type="qcurve"/>
      <point x="1108" y="295"/>
      <point x="1206" y="424"/>
      <point x="1291" y="424" type="qcurve"/>
      <point x="1374" y="424"/>
      <point x="1475" y="295"/>
    </contour>
    <contour>
      <point x="1130" y="203" type="qcurve"/>
      <point x="1130" y="117"/>
      <point x="1219" y="5"/>
      <point x="1291" y="5" type="qcurve"/>
      <point x="1364" y="5"/>
      <point x="1453" y="120"/>
      <point x="1453" y="203" type="qcurve"/>
      <point x="1453" y="289"/>
      <point x="1365" y="403"/>
      <point x="1291" y="403" type="qcurve"/>
      <point x="1217" y="403"/>
      <point x="1130" y="287"/>
    </contour>
    <contour>
      <point x="293" y="0" type="line"/>
      <point x="267" y="0" type="line"/>
      <point x="494" y="333" type="line"/>
      <point x="751" y="700" type="line"/>
      <point x="779" y="700" type="line"/>
      <point x="513" y="322" type="line"/>
    </contour>
  </outline>
</glyph>
<glyph name="guilsinglleft" format="2">
  <advance width="371"/>
  <unicode hex="2039"/>
  <note>
guilsinglleft
</note>
  <outline>
    <contour>
      <point x="54" y="263" type="line"/>
      <point x="54" y="279" type="line"/>
      <point x="331" y="88" type="line"/>
      <point x="315" y="73" type="line"/>
      <point x="40" y="264" type="line"/>
      <point x="40" y="278" type="line"/>
      <point x="315" y="457" type="line"/>
      <point x="331" y="442" type="line"/>
    </contour>
  </outline>
</glyph>
<glyph name="fraction" format="2">
  <advance width="630"/>
  <unicode hex="2044"/>
  <note>
fraction
</note>
  <outline>
    <contour>
      <point x="82" y="0" type="line"/>
      <point x="52" y="0" type="line"/>
      <point x="314" y="375" type="line"/>
      <point x="539" y="700" type="line"/>
      <point x="571" y="700" type="line"/>
      <point x="330" y="366" type="line"/>
    </contour>
  </outline>
</glyph>
<glyph name="colonsign" format="2">
  <advance width="768"/>
  <unicode hex="20A1"/>
  <anchor x="491" y="0" name="bottom"/>
  <anchor x="531" y="700" name="top"/>
  <outline>
    <contour>
      <point x="211" y="-45" type="line"/>
      <point x="193" y="-35" type="line"/>
      <point x="587" y="760" type="line"/>
      <point x="605" y="750" type="line"/>
    </contour>
    <contour>
      <point x="366" y="-55" type="line"/>
      <point x="348" y="-45" type="line"/>
      <point x="742" y="750" type="line"/>
      <point x="760" y="740" type="line"/>
    </contour>
    <contour>
      <point x="769" y="116" type="qcurve"/>
      <point x="780" y="97" type="line"/>
      <point x="725" y="48"/>
      <point x="571" y="-10"/>
      <point x="479" y="-10" type="qcurve"/>
      <point x="291" y="-10"/>
      <point x="55" y="195"/>
      <point x="55" y="349" type="qcurve"/>
      <point x="55" y="503"/>
      <point x="291" y="710"/>
      <point x="479" y="710" type="qcurve"/>
      <point x="574" y="710"/>
      <point x="731" y="648"/>
      <point x="786" y="596" type="qcurve"/>
      <point x="778" y="574" type="line"/>
      <point x="726" y="626"/>
      <point x="572" y="688"/>
      <point x="479" y="688" type="qcurve"/>
      <point x="303" y="688"/>
      <point x="78" y="494"/>
      <point x="78" y="349" type="qcurve"/>
      <point x="78" y="204"/>
      <point x="303" y="12"/>
      <point x="479" y="12" type="qcurve"/>
      <point x="568" y="12"/>
      <point x="715" y="68"/>
    </contour>
  </outline>
</glyph>
<glyph name="naira" format="2">
  <advance width="980"/>
  <unicode hex="20A6"/>
  <anchor x="601" y="0" name="bottom"/>
  <anchor x="601" y="700" name="top"/>
  <outline>
    <contour>
      <point x="812" y="238" type="qcurve"/>
      <point x="812" y="697" type="line"/>
      <point x="834" y="697" type="line"/>
      <point x="834" y="-3" type="line"/>
      <point x="804" y="-3" type="line"/>
      <point x="179" y="682" type="line"/>
      <point x="184" y="682" type="line"/>
      <point x="185" y="653"/>
      <point x="187" y="546"/>
      <point x="186" y="467" type="qcurve"/>
      <point x="186" y="-3" type="line"/>
      <point x="164" y="-3" type="line"/>
      <point x="164" y="697" type="line"/>
      <point x="194" y="697" type="line"/>
      <point x="819" y="15" type="line"/>
      <point x="814" y="14" type="line"/>
      <point x="812" y="75"/>
      <point x="813" y="200"/>
    </contour>
    <contour>
      <point x="170" y="337" type="line"/>
      <point x="40" y="337" type="line"/>
      <point x="40" y="359" type="line"/>
      <point x="170" y="359" type="line"/>
      <point x="192" y="359" type="line"/>
      <point x="317" y="359" type="line"/>
      <point x="317" y="337" type="line"/>
      <point x="192" y="337" type="line"/>
    </contour>
    <contour>
      <point x="681" y="359" type="line"/>
      <point x="782" y="359" type="line"/>
      <point x="800" y="359" type="line"/>
      <point x="940" y="359" type="line"/>
      <point x="940" y="337" type="line"/>
      <point x="800" y="337" type="line"/>
      <point x="782" y="337" type="line"/>
      <point x="681" y="337" type="line"/>
    </contour>
    <contour>
      <point x="317" y="359" type="line"/>
      <point x="681" y="359" type="line"/>
      <point x="681" y="337" type="line"/>
      <point x="317" y="337" type="line"/>
    </contour>
  </outline>
</glyph>
<glyph name="peseta" format="2">
  <advance width="1061"/>
  <unicode hex="20A7"/>
  <outline>
    <contour>
      <point x="998" y="500" type="line"/>
      <point x="93" y="500" type="line"/>
      <point x="93" y="522" type="line"/>
      <point x="998" y="522" type="line"/>
    </contour>
    <contour>
      <point x="257" y="700" type="line"/>
      <point x="617" y="700" type="line"/>
      <point x="722" y="700"/>
      <point x="837" y="593"/>
      <point x="837" y="507" type="qcurve" smooth="yes"/>
      <point x="837" y="406"/>
      <point x="722" y="281"/>
      <point x="616" y="281" type="qcurve"/>
      <point x="265" y="281" type="line"/>
      <point x="279" y="300" type="line"/>
      <point x="279" y="0" type="line"/>
      <point x="257" y="0" type="line"/>
    </contour>
    <contour>
      <point x="264" y="303" type="line"/>
      <point x="610" y="303" type="line" smooth="yes"/>
      <point x="712" y="303"/>
      <point x="814" y="413"/>
      <point x="814" y="507" type="qcurve" smooth="yes"/>
      <point x="814" y="588"/>
      <point x="713" y="678"/>
      <point x="610" y="678" type="qcurve"/>
      <point x="266" y="678" type="line"/>
      <point x="279" y="700" type="line"/>
      <point x="279" y="295" type="line"/>
    </contour>
  </outline>
</glyph>
<glyph name="kip" format="2">
  <advance width="992"/>
  <unicode hex="20AD"/>
  <anchor x="583" y="0" name="bottom"/>
  <anchor x="583" y="700" name="top"/>
  <outline>
    <contour>
      <point x="507" y="409" type="line"/>
      <point x="507" y="431" type="line"/>
      <point x="879" y="431" type="line"/>
      <point x="879" y="409" type="line"/>
    </contour>
    <contour>
      <point x="235" y="431" type="line"/>
      <point x="235" y="409" type="line"/>
      <point x="50" y="409" type="line"/>
      <point x="50" y="431" type="line"/>
    </contour>
    <contour>
      <point x="224" y="0" type="line"/>
      <point x="224" y="700" type="line"/>
      <point x="246" y="700" type="line"/>
      <point x="246" y="0" type="line"/>
    </contour>
    <contour>
      <point x="236" y="208" type="line"/>
      <point x="236" y="236" type="line"/>
      <point x="822" y="700" type="line"/>
      <point x="857" y="700" type="line"/>
    </contour>
    <contour>
      <point x="840" y="0" type="line"/>
      <point x="491" y="421" type="line"/>
      <point x="509" y="435" type="line"/>
      <point x="870" y="0" type="line"/>
    </contour>
  </outline>
</glyph>
<glyph name="peso" format="2">
  <advance width="985"/>
  <unicode hex="20B1"/>
  <anchor x="517" y="0" name="bottom"/>
  <anchor x="517" y="700" name="top"/>
  <outline>
    <contour>
      <point x="207" y="700" type="line"/>
      <point x="567" y="700" type="line"/>
      <point x="672" y="700"/>
      <point x="787" y="593"/>
      <point x="787" y="507" type="qcurve" smooth="yes"/>
      <point x="787" y="406"/>
      <point x="672" y="281"/>
      <point x="566" y="281" type="qcurve"/>
      <point x="215" y="281" type="line"/>
      <point x="229" y="300" type="line"/>
      <point x="229" y="0" type="line"/>
      <point x="207" y="0" type="line"/>
    </contour>
    <contour>
      <point x="214" y="303" type="line"/>
      <point x="560" y="303" type="line" smooth="yes"/>
      <point x="662" y="303"/>
      <point x="764" y="413"/>
      <point x="764" y="507" type="qcurve" smooth="yes"/>
      <point x="764" y="588"/>
      <point x="663" y="678"/>
      <point x="560" y="678" type="qcurve"/>
      <point x="216" y="678" type="line"/>
      <point x="229" y="700" type="line"/>
      <point x="229" y="295" type="line"/>
    </contour>
    <contour>
      <point x="460" y="429" type="line"/>
      <point x="759" y="429" type="line"/>
      <point x="772" y="429" type="line"/>
      <point x="930" y="429" type="line"/>
      <point x="930" y="407" type="line"/>
      <point x="766" y="407" type="line"/>
      <point x="753" y="407" type="line"/>
      <point x="460" y="407" type="line"/>
    </contour>
    <contour>
      <point x="213" y="407" type="line"/>
      <point x="93" y="407" type="line"/>
      <point x="93" y="429" type="line"/>
      <point x="213" y="429" type="line"/>
      <point x="224" y="429" type="line"/>
      <point x="460" y="429" type="line"/>
      <point x="460" y="407" type="line"/>
      <point x="224" y="407" type="line"/>
    </contour>
    <contour>
      <point x="461" y="565" type="line"/>
      <point x="763" y="565" type="line"/>
      <point x="773" y="565" type="line"/>
      <point x="930" y="565" type="line"/>
      <point x="930" y="543" type="line"/>
      <point x="778" y="543" type="line"/>
      <point x="767" y="543" type="line"/>
      <point x="461" y="543" type="line"/>
    </contour>
    <contour>
      <point x="213" y="543" type="line"/>
      <point x="93" y="543" type="line"/>
      <point x="93" y="565" type="line"/>
      <point x="213" y="565" type="line"/>
      <point x="224" y="565" type="line"/>
      <point x="461" y="565" type="line"/>
      <point x="461" y="543" type="line"/>
      <point x="224" y="543" type="line"/>
    </contour>
  </outline>
</glyph>
<glyph name="cedi" format="2">
  <advance width="821"/>
  <unicode hex="20B5"/>
  <outline>
    <contour>
      <point x="769" y="116" type="qcurve"/>
      <point x="780" y="97" type="line"/>
      <point x="725" y="48"/>
      <point x="571" y="-10"/>
      <point x="479" y="-10" type="qcurve"/>
      <point x="291" y="-10"/>
      <point x="55" y="195"/>
      <point x="55" y="349" type="qcurve"/>
      <point x="55" y="503"/>
      <point x="291" y="710"/>
      <point x="479" y="710" type="qcurve"/>
      <point x="574" y="710"/>
      <point x="731" y="648"/>
      <point x="786" y="596" type="qcurve"/>
      <point x="778" y="574" type="line"/>
      <point x="726" y="626"/>
      <point x="572" y="688"/>
      <point x="479" y="688" type="qcurve"/>
      <point x="303" y="688"/>
      <point x="78" y="494"/>
      <point x="78" y="349" type="qcurve"/>
      <point x="78" y="204"/>
      <point x="303" y="12"/>
      <point x="479" y="12" type="qcurve"/>
      <point x="568" y="12"/>
      <point x="715" y="68"/>
    </contour>
    <contour>
      <point x="439" y="351" type="line"/>
      <point x="439" y="692" type="line"/>
      <point x="439" y="703" type="line"/>
      <point x="439" y="785" type="line"/>
      <point x="461" y="785" type="line"/>
      <point x="461" y="703" type="line"/>
      <point x="461" y="692" type="line"/>
      <point x="461" y="351" type="line"/>
    </contour>
    <contour>
      <point x="461" y="-4" type="line"/>
      <point x="461" y="-85" type="line"/>
      <point x="439" y="-85" type="line"/>
      <point x="439" y="6" type="line"/>
      <point x="439" y="-4" type="line"/>
      <point x="439" y="351" type="line"/>
      <point x="461" y="351" type="line"/>
      <point x="461" y="6" type="line"/>
    </contour>
  </outline>
</glyph>
<glyph name="manat" format="2">
  <advance width="884"/>
  <unicode hex="20BC"/>
  <outline>
    <contour>
      <point x="453" y="801" type="line"/>
      <point x="453" y="254" type="line"/>
      <point x="431" y="254" type="line"/>
      <point x="431" y="801" type="line"/>
    </contour>
    <contour>
      <point x="132" y="-7" type="line"/>
      <point x="110" y="-7" type="line"/>
      <point x="110" y="358" type="line"/>
      <point x="111" y="506"/>
      <point x="288" y="699"/>
      <point x="438" y="699" type="qcurve"/>
      <point x="591" y="699"/>
      <point x="774" y="506"/>
      <point x="774" y="358" type="qcurve"/>
      <point x="774" y="-7" type="line"/>
      <point x="752" y="-7" type="line"/>
      <point x="752" y="354" type="line"/>
      <point x="752" y="497"/>
      <point x="577" y="676"/>
      <point x="438" y="676" type="qcurve"/>
      <point x="301" y="676"/>
      <point x="132" y="497"/>
      <point x="132" y="354" type="qcurve"/>
    </contour>
  </outline>
</glyph>
<glyph name="numero" format="2">
  <advance width="1448"/>
  <unicode hex="2116"/>
  <outline>
    <contour>
      <point x="1356" y="206" type="line"/>
      <point x="1007" y="206" type="line"/>
      <point x="1007" y="228" type="line"/>
      <point x="1356" y="228" type="line"/>
    </contour>
    <contour>
      <point x="1182" y="710" type="qcurve"/>
      <point x="1263" y="710"/>
      <point x="1368" y="605"/>
      <point x="1368" y="524" type="qcurve"/>
      <point x="1368" y="443"/>
      <point x="1263" y="338"/>
      <point x="1182" y="338" type="qcurve"/>
      <point x="1101" y="338"/>
      <point x="996" y="443"/>
      <point x="996" y="524" type="qcurve"/>
      <point x="996" y="605"/>
      <point x="1101" y="710"/>
    </contour>
    <contour>
      <point x="1181" y="360" type="qcurve"/>
      <point x="1253" y="360"/>
      <point x="1346" y="452"/>
      <point x="1346" y="524" type="qcurve"/>
      <point x="1346" y="596"/>
      <point x="1253" y="688"/>
      <point x="1181" y="688" type="qcurve"/>
      <point x="1110" y="688"/>
      <point x="1018" y="596"/>
      <point x="1018" y="524" type="qcurve"/>
      <point x="1018" y="452"/>
      <point x="1110" y="360"/>
    </contour>
    <contour>
      <point x="758" y="241" type="qcurve"/>
      <point x="758" y="700" type="line"/>
      <point x="780" y="700" type="line"/>
      <point x="780" y="0" type="line"/>
      <point x="750" y="0" type="line"/>
      <point x="125" y="685" type="line"/>
      <point x="130" y="685" type="line"/>
      <point x="131" y="656"/>
      <point x="133" y="549"/>
      <point x="132" y="470" type="qcurve"/>
      <point x="132" y="0" type="line"/>
      <point x="110" y="0" type="line"/>
      <point x="110" y="700" type="line"/>
      <point x="140" y="700" type="line"/>
      <point x="765" y="18" type="line"/>
      <point x="760" y="17" type="line"/>
      <point x="758" y="78"/>
      <point x="759" y="203"/>
    </contour>
  </outline>
</glyph>
<glyph name="partialdiff" format="2">
  <advance width="740"/>
  <unicode hex="2202"/>
  <note>
partialdiff
</note>
  <outline>
    <contour>
      <point x="693" y="261" type="qcurve"/>
      <point x="693" y="143"/>
      <point x="508" y="-10"/>
      <point x="365" y="-10" type="qcurve"/>
      <point x="226" y="-10"/>
      <point x="47" y="144"/>
      <point x="47" y="263" type="qcurve"/>
      <point x="47" y="378"/>
      <point x="220" y="527"/>
      <point x="354" y="527" type="qcurve" smooth="yes"/>
      <point x="483" y="527"/>
      <point x="649" y="416"/>
      <point x="674" y="333" type="qcurve"/>
      <point x="664" y="327" type="line"/>
      <point x="649" y="452"/>
      <point x="440" y="673"/>
      <point x="293" y="720" type="qcurve"/>
      <point x="310" y="735" type="line"/>
      <point x="390" y="709"/>
      <point x="528" y="617"/>
      <point x="578" y="557" type="qcurve" smooth="yes"/>
      <point x="632" y="493"/>
      <point x="693" y="340"/>
    </contour>
    <contour>
      <point x="69" y="263" type="qcurve"/>
      <point x="69" y="153"/>
      <point x="236" y="12"/>
      <point x="365" y="12" type="qcurve"/>
      <point x="498" y="12"/>
      <point x="670" y="153"/>
      <point x="670" y="263" type="qcurve"/>
      <point x="670" y="369"/>
      <point x="492" y="505"/>
      <point x="355" y="505" type="qcurve"/>
      <point x="230" y="505"/>
      <point x="69" y="369"/>
    </contour>
  </outline>
</glyph>
<glyph name="product" format="2">
  <advance width="948"/>
  <unicode hex="220F"/>
  <note>
product
</note>
  <outline>
    <contour>
      <point x="219" y="-200" type="line"/>
      <point x="197" y="-200" type="line"/>
      <point x="197" y="690" type="line"/>
      <point x="219" y="690" type="line"/>
    </contour>
    <contour>
      <point x="920" y="678" type="line"/>
      <point x="28" y="678" type="line"/>
      <point x="28" y="700" type="line"/>
      <point x="920" y="700" type="line"/>
    </contour>
    <contour>
      <point x="751" y="-200" type="line"/>
      <point x="729" y="-200" type="line"/>
      <point x="729" y="690" type="line"/>
      <point x="751" y="690" type="line"/>
    </contour>
  </outline>
</glyph>
<glyph name="infinity" format="2">
  <advance width="1023"/>
  <unicode hex="221E"/>
  <outline>
    <contour>
      <point x="228" y="47" type="qcurve" smooth="yes"/>
      <point x="135" y="47"/>
      <point x="35" y="148"/>
      <point x="35" y="242" type="qcurve" smooth="yes"/>
      <point x="35" y="336"/>
      <point x="135" y="437"/>
      <point x="228" y="437" type="qcurve" smooth="yes"/>
      <point x="279" y="437"/>
      <point x="373" y="392"/>
      <point x="426" y="341" type="qcurve" smooth="yes"/>
      <point x="623" y="153" type="line" smooth="yes"/>
      <point x="669" y="109"/>
      <point x="749" y="69"/>
      <point x="792" y="69" type="qcurve" smooth="yes"/>
      <point x="875" y="69"/>
      <point x="965" y="159"/>
      <point x="965" y="242" type="qcurve" smooth="yes"/>
      <point x="965" y="325"/>
      <point x="872" y="415"/>
      <point x="785" y="415" type="qcurve" smooth="yes"/>
      <point x="739" y="415"/>
      <point x="660" y="377"/>
      <point x="617" y="334" type="qcurve" smooth="yes"/>
      <point x="418" y="140" type="line" smooth="yes"/>
      <point x="367" y="91"/>
      <point x="277" y="47"/>
    </contour>
    <contour>
      <point x="58" y="242" type="qcurve" smooth="yes"/>
      <point x="58" y="159"/>
      <point x="147" y="69"/>
      <point x="230" y="69" type="qcurve" smooth="yes"/>
      <point x="275" y="69"/>
      <point x="357" y="110"/>
      <point x="404" y="156" type="qcurve" smooth="yes"/>
      <point x="602" y="349" type="line" smooth="yes"/>
      <point x="651" y="395"/>
      <point x="741" y="437"/>
      <point x="792" y="437" type="qcurve" smooth="yes"/>
      <point x="886" y="437"/>
      <point x="988" y="336"/>
      <point x="988" y="242" type="qcurve" smooth="yes"/>
      <point x="988" y="148"/>
      <point x="887" y="47"/>
      <point x="794" y="47" type="qcurve" smooth="yes"/>
      <point x="745" y="47"/>
      <point x="657" y="90"/>
      <point x="608" y="137" type="qcurve" smooth="yes"/>
      <point x="410" y="326" type="line" smooth="yes"/>
      <point x="361" y="373"/>
      <point x="276" y="415"/>
      <point x="230" y="415" type="qcurve" smooth="yes"/>
      <point x="147" y="415"/>
      <point x="58" y="325"/>
    </contour>
  </outline>
</glyph>
<glyph name="greaterequal" format="2">
  <advance width="760"/>
  <unicode hex="2265"/>
  <note>
greaterequal
</note>
  <outline>
    <contour>
      <point x="685" y="0" type="line"/>
      <point x="116" y="0" type="line"/>
      <point x="116" y="22" type="line"/>
      <point x="685" y="22" type="line"/>
    </contour>
    <contour>
      <point x="82" y="460" type="line"/>
      <point x="87" y="482" type="line"/>
      <point x="653" y="340" type="line"/>
      <point x="653" y="306" type="line"/>
      <point x="87" y="165" type="line"/>
      <point x="80" y="186" type="line"/>
      <point x="648" y="328" type="line"/>
      <point x="648" y="318" type="line"/>
    </contour>
  </outline>
</glyph>
<glyph name="I.ss01" format="2">
  <advance width="324"/>
  <note>
I
</note>
  <anchor x="162" y="0" name="bottom"/>
  <anchor x="178" y="0" name="ogonek"/>
  <anchor x="162" y="700" name="top"/>
  <anchor x="108" y="700" name="topleft"/>
  <outline>
    <contour>
      <point x="173" y="700" type="qcurve"/>
      <point x="173" y="0" type="line"/>
      <point x="152" y="0" type="line"/>
      <point x="152" y="700" type="line"/>
      <point x="131" y="700"/>
      <point x="193" y="700"/>
    </contour>
  </outline>
</glyph>
<glyph name="Iogonek.ss01" format="2">
  <advance width="166"/>
  <note>
Iogonek
</note>
  <outline>
    <contour>
      <point x="96" y="700" type="qcurve"/>
      <point x="96" y="0" type="line"/>
      <point x="74" y="0" type="line"/>
      <point x="74" y="700" type="line"/>
      <point x="56" y="700"/>
      <point x="114" y="700"/>
    </contour>
    <contour>
      <point x="74" y="-211" type="qcurve" smooth="yes"/>
      <point x="34" y="-211"/>
      <point x="-21" y="-156"/>
      <point x="-21" y="-111" type="qcurve" smooth="yes"/>
      <point x="-21" y="-65"/>
      <point x="68" y="-3"/>
      <point x="87" y="18" type="qcurve"/>
      <point x="94" y="8" type="line"/>
      <point x="94" y="0" type="line"/>
      <point x="59" y="-26"/>
      <point x="1" y="-82"/>
      <point x="1" y="-111" type="qcurve" smooth="yes"/>
      <point x="1" y="-144"/>
      <point x="42" y="-189"/>
      <point x="74" y="-189" type="qcurve" smooth="yes"/>
      <point x="100" y="-189"/>
      <point x="135" y="-162"/>
      <point x="144" y="-144" type="qcurve"/>
      <point x="159" y="-157" type="line"/>
      <point x="149" y="-177"/>
      <point x="106" y="-211"/>
    </contour>
  </outline>
</glyph>
<glyph name="_connection.round" format="2">
  <advance width="192"/>
  <outline>
    <contour>
      <point x="-79.0" y="102.0" type="qcurve"/>
      <point x="-31.0" y="149.0" type="line"/>
      <point x="13.776119402985074" y="119.8955223880597"/>
      <point x="126.32835820895522" y="102.0"/>
      <point x="192.0" y="102.0" type="qcurve"/>
      <point x="192.0" y="0.0" type="line"/>
      <point x="92.74626865671642" y="0.0"/>
      <point x="-33.47761194029851" y="46.77611940298508"/>
    </contour>
  </outline>
</glyph>
<glyph name="_guide" format="2">
  <advance width="1283"/>
  <outline>
    <contour>
      <point x="963.0" y="536.0" type="qcurve"/>
      <point x="1086.8805970149253" y="536.0"/>
      <point x="1213.0" y="402.53731343283584"/>
      <point x="1213.0" y="310.0" type="qcurve"/>
      <point x="1213.0" y="0.0" type="line"/>
      <point x="1110.0" y="0.0" type="line"/>
      <point x="1110.0" y="293.0" type="line"/>
      <point x="1110.0" y="357.92537313432837"/>
      <point x="1009.1492537313433" y="440.0"/>
      <point x="939.0" y="440.0" type="qcurve" smooth="yes"/>
      <point x="853.179104477612" y="440.0"/>
      <point x="741.0" y="328.74626865671644"/>
      <point x="741.0" y="278.0" type="qcurve"/>
      <point x="741.0" y="0.0" type="line"/>
      <point x="741.0" y="0.0"/>
      <point x="638.0" y="0.0"/>
      <point x="638.0" y="0.0" type="qcurve"/>
      <point x="638.0" y="525.0" type="line"/>
      <point x="741.0" y="525.0" type="line"/>
      <point x="741.0" y="377.0" type="line"/>
      <point x="703.0" y="375.0" type="line"/>
      <point x="736.5820895522388" y="430.97014925373134"/>
      <point x="868.223880597015" y="536.0"/>
    </contour>
    <contour>
      <point x="347.0" y="536.0" type="qcurve"/>
      <point x="452.2238805970149" y="536.0"/>
      <point x="527.0" y="408.8059701492537"/>
      <point x="527.0" y="320.0" type="qcurve"/>
      <point x="527.0" y="0.0" type="line"/>
      <point x="424.0" y="0.0" type="line"/>
      <point x="424.0" y="313.0" type="line"/>
      <point x="424.0" y="369.7164179104478"/>
      <point x="376.43283582089555" y="445.7313432835821"/>
      <point x="313.0" y="442.0" type="qcurve"/>
      <point x="253.2985074626866" y="442.0"/>
      <point x="175.0" y="368.74626865671644"/>
      <point x="175.0" y="318.0" type="qcurve"/>
      <point x="175.0" y="0.0" type="line"/>
      <point x="175.0" y="0.0"/>
      <point x="72.0" y="0.0"/>
      <point x="72.0" y="0.0" type="qcurve"/>
      <point x="72.0" y="525.0" type="line"/>
      <point x="175.0" y="525.0" type="line"/>
      <point x="175.0" y="417.0" type="line"/>
      <point x="157.0" y="405.0" type="line"/>
      <point x="170.43283582089552" y="450.5223880597015"/>
      <point x="277.5970149253732" y="536.0"/>
    </contour>
  </outline>
</glyph>
<glyph name="a.ss01" format="2">
  <advance width="737"/>
  <note>
a
</note>
  <anchor x="358" y="0" name="bottom"/>
  <anchor x="675" y="10" name="ogonek"/>
  <anchor x="352" y="525" name="top"/>
  <outline>
    <contour>
      <point x="355" y="530" type="qcurve"/>
      <point x="489" y="530"/>
      <point x="664" y="428"/>
      <point x="664" y="304" type="qcurve"/>
      <point x="664" y="0" type="line"/>
      <point x="642" y="0" type="line"/>
      <point x="642" y="307" type="line"/>
      <point x="642" y="411"/>
      <point x="493" y="508"/>
      <point x="342" y="508" type="qcurve"/>
      <point x="279" y="508"/>
      <point x="137" y="463"/>
      <point x="77" y="420" type="qcurve"/>
      <point x="71" y="440" type="line"/>
      <point x="132" y="485"/>
      <point x="277" y="530"/>
    </contour>
    <contour>
      <point x="346" y="287" type="qcurve"/>
      <point x="650" y="287" type="line"/>
      <point x="650" y="265" type="line"/>
      <point x="340" y="265" type="line" smooth="yes"/>
      <point x="195" y="265"/>
      <point x="62" y="198"/>
      <point x="62" y="149" type="qcurve"/>
      <point x="62" y="83"/>
      <point x="205" y="12"/>
      <point x="299" y="12" type="qcurve"/>
      <point x="407" y="12"/>
      <point x="599" y="96"/>
      <point x="647" y="157" type="qcurve"/>
      <point x="660" y="146" type="line"/>
      <point x="616" y="87"/>
      <point x="417" y="-10"/>
      <point x="298" y="-10" type="qcurve"/>
      <point x="199" y="-10"/>
      <point x="40" y="67"/>
      <point x="40" y="149" type="qcurve"/>
      <point x="40" y="209"/>
      <point x="185" y="287"/>
    </contour>
  </outline>
</glyph>
<glyph name="acutecomb.case" format="2">
  <outline>
    <contour>
      <point x="208" y="724" type="line"/>
      <point x="62" y="625" type="line"/>
      <point x="52" y="640" type="line"/>
      <point x="194" y="745" type="line"/>
    </contour>
  </outline>
</glyph>
<glyph name="circumflexcomb.case" format="2">
  <advance width="362"/>
  <anchor x="181" y="525" name="_top"/>
  <anchor x="181" y="736" name="top"/>
  <outline>
    <contour>
      <point x="290.0" y="635.0" type="line"/>
      <point x="174.0" y="727.0" type="line"/>
      <point x="189.0" y="727.0" type="line"/>
      <point x="72.0" y="635.0" type="line"/>
      <point x="60.0" y="648.0" type="line"/>
      <point x="167.0" y="740.0" type="line"/>
      <point x="195.0" y="740.0" type="line"/>
      <point x="302.0" y="648.0" type="line"/>
    </contour>
  </outline>
</glyph>
<glyph name="commaaccentcomb.case" format="2">
  <outline>
    <contour>
      <point x="86" y="-151" type="qcurve"/>
      <point x="74" y="-139" type="line"/>
      <point x="92" y="-122"/>
      <point x="108" y="-100"/>
      <point x="108" y="-92" type="qcurve" smooth="yes"/>
      <point x="108" y="-81"/>
      <point x="99" y="-71"/>
      <point x="90" y="-68" type="qcurve" smooth="yes"/>
      <point x="81" y="-65"/>
      <point x="71" y="-52"/>
      <point x="71" y="-42" type="qcurve"/>
      <point x="71" y="-31"/>
      <point x="87" y="-16"/>
      <point x="98" y="-16" type="qcurve"/>
      <point x="114" y="-16"/>
      <point x="134" y="-39"/>
      <point x="134" y="-62" type="qcurve" smooth="yes"/>
      <point x="134" y="-87"/>
      <point x="112" y="-130"/>
    </contour>
  </outline>
</glyph>
<glyph name="dotbelowcomb.case" format="2">
  <outline>
    <contour>
      <point x="135" y="-105" type="qcurve" smooth="yes"/>
      <point x="135" y="-114"/>
      <point x="124" y="-134"/>
      <point x="107" y="-134" type="qcurve" smooth="yes"/>
      <point x="91" y="-134"/>
      <point x="79" y="-116"/>
      <point x="79" y="-105" type="qcurve" smooth="yes"/>
      <point x="79" y="-97"/>
      <point x="90" y="-76"/>
      <point x="107" y="-76" type="qcurve" smooth="yes"/>
      <point x="122" y="-76"/>
      <point x="135" y="-94"/>
    </contour>
  </outline>
</glyph>
<glyph name="four.dnom" format="2">
  <advance width="390"/>
  <outline>
    <contour>
      <point x="279.0" y="0.0" type="line"/>
      <point x="257.0" y="0.0" type="line"/>
      <point x="257.0" y="90.0" type="line"/>
      <point x="257.0" y="102.0" type="line"/>
      <point x="257.0" y="344.0" type="line"/>
      <point x="267.0" y="334.0" type="line"/>
      <point x="81.0" y="94.0" type="line"/>
      <point x="83.0" y="107.0" type="line"/>
      <point x="340.0" y="107.0" type="line"/>
      <point x="340.0" y="85.0" type="line"/>
      <point x="61.0" y="85.0" type="line"/>
      <point x="58.0" y="99.0" type="line"/>
      <point x="257.0" y="356.0" type="line"/>
      <point x="279.0" y="356.0" type="line"/>
    </contour>
  </outline>
</glyph>
<glyph name="g.ss01" format="2">
  <advance width="701"/>
  <outline>
    <contour>
      <point x="85" y="357" type="qcurve"/>
      <point x="85" y="429"/>
      <point x="234" y="531"/>
      <point x="340" y="531" type="qcurve"/>
      <point x="362" y="531"/>
      <point x="442" y="522"/>
      <point x="462" y="512" type="qcurve"/>
      <point x="432" y="520" type="line"/>
      <point x="642" y="520" type="line"/>
      <point x="642" y="498" type="line"/>
      <point x="483" y="498" type="line"/>
      <point x="483" y="506" type="line"/>
      <point x="552" y="467"/>
      <point x="596" y="393"/>
      <point x="596" y="357" type="qcurve"/>
      <point x="596" y="280"/>
      <point x="456" y="180"/>
      <point x="340" y="180" type="qcurve" smooth="yes"/>
      <point x="191" y="180" type="line"/>
      <point x="150" y="180"/>
      <point x="114" y="150"/>
      <point x="114" y="130" type="qcurve"/>
      <point x="114" y="105"/>
      <point x="151" y="79"/>
      <point x="190" y="79" type="qcurve"/>
      <point x="348" y="79" type="line" smooth="yes"/>
      <point x="484" y="79"/>
      <point x="638" y="-4"/>
      <point x="638" y="-76" type="qcurve" smooth="yes"/>
      <point x="638" y="-142"/>
      <point x="484" y="-231"/>
      <point x="348" y="-231" type="qcurve" smooth="yes"/>
      <point x="207" y="-231"/>
      <point x="59" y="-142"/>
      <point x="59" y="-76" type="qcurve" smooth="yes"/>
      <point x="59" y="-26"/>
      <point x="131" y="49"/>
      <point x="238" y="70" type="qcurve"/>
      <point x="200" y="57" type="line"/>
      <point x="143" y="56"/>
      <point x="91" y="96"/>
      <point x="91" y="129" type="qcurve"/>
      <point x="91" y="163"/>
      <point x="147" y="202"/>
      <point x="223" y="202" type="qcurve"/>
      <point x="270" y="187" type="line"/>
      <point x="163" y="209"/>
      <point x="85" y="306"/>
    </contour>
    <contour>
      <point x="340" y="509" type="qcurve"/>
      <point x="242" y="509"/>
      <point x="108" y="421"/>
      <point x="108" y="357" type="qcurve"/>
      <point x="108" y="290"/>
      <point x="242" y="202"/>
      <point x="340" y="202" type="qcurve" smooth="yes"/>
      <point x="439" y="202"/>
      <point x="573" y="287"/>
      <point x="573" y="357" type="qcurve"/>
      <point x="573" y="420"/>
      <point x="439" y="509"/>
    </contour>
    <contour>
      <point x="347" y="-209" type="qcurve" smooth="yes"/>
      <point x="470" y="-209"/>
      <point x="615" y="-133"/>
      <point x="615" y="-76" type="qcurve" smooth="yes"/>
      <point x="615" y="-14"/>
      <point x="470" y="57"/>
      <point x="347" y="57" type="qcurve" smooth="yes"/>
      <point x="223" y="57"/>
      <point x="82" y="-13"/>
      <point x="82" y="-76" type="qcurve" smooth="yes"/>
      <point x="82" y="-133"/>
      <point x="227" y="-209"/>
    </contour>
  </outline>
</glyph>
<glyph name="gravecomb.case" format="2">
  <anchor x="201" y="519" name="_top"/>
  <anchor x="131" y="749" name="top"/>
  <outline>
    <contour>
      <point x="213.0" y="620.0" type="line"/>
      <point x="203.0" y="605.0" type="line"/>
      <point x="57.0" y="704.0" type="line"/>
      <point x="71.0" y="725.0" type="line"/>
    </contour>
  </outline>
</glyph>
<glyph name="horncomb.case" format="2">
  <outline>
    <contour>
      <point x="33.0" y="504.0" type="qcurve"/>
      <point x="33.0" y="525.0" type="line"/>
      <point x="84.0" y="525.0"/>
      <point x="129.0" y="572.0"/>
      <point x="129.0" y="624.0" type="qcurve"/>
      <point x="151.0" y="624.0" type="line"/>
      <point x="151.0" y="561.0"/>
      <point x="95.0" y="504.0"/>
    </contour>
  </outline>
</glyph>
<glyph name="macroncomb.case" format="2">
  <anchor x="216" y="525" name="_top"/>
  <anchor x="216" y="687" name="top"/>
  <outline>
    <contour>
      <point x="349.0" y="613.0" type="line"/>
      <point x="79.0" y="613.0" type="line"/>
      <point x="79.0" y="635.0" type="line"/>
      <point x="349.0" y="635.0" type="line"/>
    </contour>
  </outline>
</glyph>
<glyph name="ogonekcomb.case" format="2">
  <anchor x="228" y="0" name="_ogonek"/>
  <outline>
    <contour>
      <point x="156.0" y="-231.0" type="qcurve" smooth="yes"/>
      <point x="115.95522388059702" y="-231.0"/>
      <point x="56.0" y="-175.02985074626866"/>
      <point x="56.0" y="-131.0" type="qcurve" smooth="yes"/>
      <point x="56.0" y="-59.05970149253732"/>
      <point x="173.2537313432836" y="12.820895522388057"/>
      <point x="211.0" y="17.0" type="qcurve"/>
      <point x="216.0" y="7.0" type="line"/>
      <point x="216.0" y="-1.0" type="line"/>
      <point x="161.70149253731344" y="-9.955223880597014"/>
      <point x="78.0" y="-75.8955223880597"/>
      <point x="78.0" y="-131.0" type="qcurve" smooth="yes"/>
      <point x="78.0" y="-163.67164179104478"/>
      <point x="122.32835820895522" y="-209.0"/>
      <point x="156.0" y="-209.0" type="qcurve" smooth="yes"/>
      <point x="183.6865671641791" y="-209.0"/>
      <point x="222.02985074626866" y="-181.7014925373134"/>
      <point x="231.0" y="-164.0" type="qcurve"/>
      <point x="246.0" y="-177.0" type="line"/>
      <point x="235.7910447761194" y="-196.8955223880597"/>
      <point x="190.29850746268656" y="-231.0"/>
    </contour>
  </outline>
</glyph>
<glyph name="ring.case" format="2">
  <advance width="336"/>
  <outline>
    <contour>
      <point x="266" y="835" type="qcurve"/>
      <point x="266" y="797"/>
      <point x="207" y="740"/>
      <point x="168" y="740" type="qcurve"/>
      <point x="130" y="740"/>
      <point x="71" y="797"/>
      <point x="71" y="835" type="qcurve"/>
      <point x="71" y="875"/>
      <point x="130" y="931"/>
      <point x="168" y="931" type="qcurve"/>
      <point x="206" y="931"/>
      <point x="266" y="875"/>
    </contour>
    <contour>
      <point x="93" y="835" type="qcurve"/>
      <point x="93" y="806"/>
      <point x="138" y="762"/>
      <point x="168" y="762" type="qcurve"/>
      <point x="199" y="762"/>
      <point x="244" y="806"/>
      <point x="244" y="835" type="qcurve"/>
      <point x="244" y="870"/>
      <point x="198" y="909"/>
      <point x="168" y="909" type="qcurve"/>
      <point x="136" y="909"/>
      <point x="93" y="867"/>
    </contour>
  </outline>
</glyph>
<glyph name="six.dnom" format="2">
  <advance width="343"/>
  <outline>
    <contour>
      <point x="289" y="108" type="qcurve"/>
      <point x="289" y="56"/>
      <point x="219" y="-10"/>
      <point x="172" y="-10" type="qcurve"/>
      <point x="114" y="-10"/>
      <point x="52" y="68"/>
      <point x="52" y="130" type="qcurve"/>
      <point x="52" y="233"/>
      <point x="115" y="358"/>
      <point x="186" y="358" type="qcurve"/>
      <point x="208" y="358"/>
      <point x="250" y="345"/>
      <point x="271" y="330" type="qcurve"/>
      <point x="261" y="311" type="line"/>
      <point x="247" y="320"/>
      <point x="209" y="336"/>
      <point x="183" y="336" type="qcurve"/>
      <point x="133" y="336"/>
      <point x="77" y="244"/>
      <point x="73" y="151" type="qcurve"/>
      <point x="64" y="140" type="line"/>
      <point x="76" y="181"/>
      <point x="134" y="225"/>
      <point x="172" y="225" type="qcurve"/>
      <point x="223" y="225"/>
      <point x="289" y="155"/>
    </contour>
    <contour>
      <point x="76" y="107" type="qcurve"/>
      <point x="76" y="68"/>
      <point x="130" y="11"/>
      <point x="171" y="11" type="qcurve"/>
      <point x="210" y="11"/>
      <point x="268" y="67"/>
      <point x="268" y="107" type="qcurve"/>
      <point x="268" y="147"/>
      <point x="212" y="204"/>
      <point x="171" y="204" type="qcurve"/>
      <point x="130" y="204"/>
      <point x="76" y="146"/>
    </contour>
  </outline>
</glyph>
<glyph name="three.dnom" format="2">
  <advance width="342"/>
  <outline>
    <contour>
      <point x="297.0" y="108.0" type="qcurve"/>
      <point x="297.0" y="52.0"/>
      <point x="219.25373134328356" y="-10.0"/>
      <point x="174.0" y="-10.0" type="qcurve"/>
      <point x="144.8955223880597" y="-10.0"/>
      <point x="86.1490712581095" y="9.074626865671643"/>
      <point x="65.99981752676622" y="24.0" type="qcurve"/>
      <point x="78.0" y="42.0" type="line"/>
      <point x="111.64179104477611" y="21.56716417910448"/>
      <point x="153.82089552238807" y="12.0"/>
      <point x="172.0" y="12.0" type="qcurve"/>
      <point x="212.88059701492537" y="12.0"/>
      <point x="275.0" y="60.38805970149254"/>
      <point x="275.0" y="107.0" type="qcurve"/>
      <point x="275.0" y="146.8955223880597"/>
      <point x="217.62686567164178" y="194.0"/>
      <point x="181.0" y="194.0" type="qcurve"/>
      <point x="149.61893066314" y="194.0"/>
      <point x="105.50615719194886" y="178.89024199493022"/>
      <point x="97.0" y="169.0" type="qcurve"/>
      <point x="92.0" y="184.0" type="line"/>
      <point x="249.0" y="334.0" type="line"/>
      <point x="254.0" y="329.0" type="line"/>
      <point x="80.0" y="329.0" type="line"/>
      <point x="80.0" y="350.0" type="line"/>
      <point x="266.0" y="350.0" type="line"/>
      <point x="270.0" y="326.0" type="line"/>
      <point x="124.0" y="187.0" type="line"/>
      <point x="107.0" y="187.0" type="line"/>
      <point x="132.38782913466648" y="203.7610403186334"/>
      <point x="164.71947952544969" y="215.0"/>
      <point x="183.0" y="215.0" type="qcurve"/>
      <point x="232.29904051172707" y="215.0"/>
      <point x="297.0" y="152.0"/>
    </contour>
  </outline>
</glyph>
<glyph name="tildecomb.case" format="2">
  <advance width="10"/>
  <outline>
    <contour>
      <point x="107" y="599" type="qcurve"/>
      <point x="85" y="599" type="line"/>
      <point x="85" y="631"/>
      <point x="117" y="666"/>
      <point x="147" y="666" type="qcurve" smooth="yes"/>
      <point x="160" y="666"/>
      <point x="201" y="653"/>
      <point x="225" y="640" type="qcurve" smooth="yes"/>
      <point x="243" y="630"/>
      <point x="275" y="620"/>
      <point x="286" y="620" type="qcurve"/>
      <point x="310" y="620"/>
      <point x="337" y="643"/>
      <point x="338" y="665" type="qcurve"/>
      <point x="360" y="665" type="line"/>
      <point x="360" y="633"/>
      <point x="321" y="598"/>
      <point x="285" y="598" type="qcurve"/>
      <point x="272" y="598"/>
      <point x="235" y="610"/>
      <point x="213" y="621" type="qcurve" smooth="yes"/>
      <point x="191" y="632"/>
      <point x="155" y="644"/>
      <point x="144" y="644" type="qcurve" smooth="yes"/>
      <point x="126" y="644"/>
      <point x="107" y="621"/>
    </contour>
  </outline>
</glyph>
<glyph name="zero.dnom" format="2">
  <advance width="364"/>
  <outline>
    <contour>
      <point x="334.0" y="174.0" type="qcurve"/>
      <point x="334.0" y="97.0"/>
      <point x="249.67164179104478" y="-10.0"/>
      <point x="183.0" y="-10.0" type="qcurve"/>
      <point x="114.83582089552239" y="-10.0"/>
      <point x="30.0" y="97.13432835820896"/>
      <point x="30.0" y="174.0" type="qcurve"/>
      <point x="30.0" y="251.61194029850745"/>
      <point x="112.85074626865672" y="359.0"/>
      <point x="183.0" y="359.0" type="qcurve"/>
      <point x="252.40298507462686" y="359.0"/>
      <point x="334.0" y="252.0"/>
    </contour>
    <contour>
      <point x="53.0" y="174.0" type="qcurve"/>
      <point x="53.0" y="103.0"/>
      <point x="123.67164179104478" y="12.0"/>
      <point x="183.0" y="12.0" type="qcurve"/>
      <point x="240.83582089552237" y="12.0"/>
      <point x="311.0" y="105.23880597014926"/>
      <point x="311.0" y="174.0" type="qcurve"/>
      <point x="311.0" y="244.01492537313433"/>
      <point x="244.04665648137268" y="337.0"/>
      <point x="183.0" y="337.0" type="qcurve"/>
      <point x="121.96054610667592" y="337.0"/>
      <point x="53.0" y="245.0"/>
    </contour>
  </outline>
</glyph>
